%TF.GenerationSoftware,KiCad,Pcbnew,9.0.3*%
%TF.CreationDate,2026-06-10T21:55:06+02:00*%
%TF.ProjectId,ESP32-S3-Remote,45535033-322d-4533-932d-52656d6f7465,rev?*%
%TF.SameCoordinates,Original*%
%TF.FileFunction,Legend,Top*%
%TF.FilePolarity,Positive*%
%FSLAX46Y46*%
G04 Gerber Fmt 4.6, Leading zero omitted, Abs format (unit mm)*
G04 Created by KiCad (PCBNEW 9.0.3) date 2026-06-10 21:55:06*
%MOMM*%
%LPD*%
G01*
G04 APERTURE LIST*
G04 Aperture macros list*
%AMRoundRect*
0 Rectangle with rounded corners*
0 $1 Rounding radius*
0 $2 $3 $4 $5 $6 $7 $8 $9 X,Y pos of 4 corners*
0 Add a 4 corners polygon primitive as box body*
4,1,4,$2,$3,$4,$5,$6,$7,$8,$9,$2,$3,0*
0 Add four circle primitives for the rounded corners*
1,1,$1+$1,$2,$3*
1,1,$1+$1,$4,$5*
1,1,$1+$1,$6,$7*
1,1,$1+$1,$8,$9*
0 Add four rect primitives between the rounded corners*
20,1,$1+$1,$2,$3,$4,$5,0*
20,1,$1+$1,$4,$5,$6,$7,0*
20,1,$1+$1,$6,$7,$8,$9,0*
20,1,$1+$1,$8,$9,$2,$3,0*%
G04 Aperture macros list end*
%ADD10C,0.200000*%
%ADD11C,0.150000*%
%ADD12C,0.120000*%
%ADD13C,1.500000*%
%ADD14R,1.000000X1.000000*%
%ADD15C,1.000000*%
%ADD16RoundRect,0.225000X0.250000X-0.225000X0.250000X0.225000X-0.250000X0.225000X-0.250000X-0.225000X0*%
%ADD17RoundRect,0.200000X0.200000X0.275000X-0.200000X0.275000X-0.200000X-0.275000X0.200000X-0.275000X0*%
%ADD18RoundRect,0.200000X-0.275000X0.200000X-0.275000X-0.200000X0.275000X-0.200000X0.275000X0.200000X0*%
%ADD19RoundRect,0.150000X0.587500X0.150000X-0.587500X0.150000X-0.587500X-0.150000X0.587500X-0.150000X0*%
%ADD20RoundRect,0.150000X-0.587500X-0.150000X0.587500X-0.150000X0.587500X0.150000X-0.587500X0.150000X0*%
%ADD21R,1.700000X0.900000*%
%ADD22RoundRect,0.200000X0.275000X-0.200000X0.275000X0.200000X-0.275000X0.200000X-0.275000X-0.200000X0*%
%ADD23RoundRect,0.225000X-0.250000X0.225000X-0.250000X-0.225000X0.250000X-0.225000X0.250000X0.225000X0*%
%ADD24R,1.600000X0.500000*%
%ADD25RoundRect,0.225000X0.225000X0.250000X-0.225000X0.250000X-0.225000X-0.250000X0.225000X-0.250000X0*%
%ADD26RoundRect,0.150000X-0.150000X0.512500X-0.150000X-0.512500X0.150000X-0.512500X0.150000X0.512500X0*%
%ADD27C,0.650000*%
%ADD28RoundRect,0.150000X-0.150000X-0.425000X0.150000X-0.425000X0.150000X0.425000X-0.150000X0.425000X0*%
%ADD29RoundRect,0.075000X-0.075000X-0.500000X0.075000X-0.500000X0.075000X0.500000X-0.075000X0.500000X0*%
%ADD30RoundRect,0.250000X-0.840000X-0.750000X0.840000X-0.750000X0.840000X0.750000X-0.840000X0.750000X0*%
%ADD31RoundRect,0.150000X0.150000X-0.512500X0.150000X0.512500X-0.150000X0.512500X-0.150000X-0.512500X0*%
%ADD32R,1.500000X0.900000*%
%ADD33R,0.900000X1.500000*%
%ADD34C,0.600000*%
%ADD35R,3.900000X3.900000*%
G04 APERTURE END LIST*
D10*
X72061101Y-106293219D02*
X71727768Y-105817028D01*
X71489673Y-106293219D02*
X71489673Y-105293219D01*
X71489673Y-105293219D02*
X71870625Y-105293219D01*
X71870625Y-105293219D02*
X71965863Y-105340838D01*
X71965863Y-105340838D02*
X72013482Y-105388457D01*
X72013482Y-105388457D02*
X72061101Y-105483695D01*
X72061101Y-105483695D02*
X72061101Y-105626552D01*
X72061101Y-105626552D02*
X72013482Y-105721790D01*
X72013482Y-105721790D02*
X71965863Y-105769409D01*
X71965863Y-105769409D02*
X71870625Y-105817028D01*
X71870625Y-105817028D02*
X71489673Y-105817028D01*
X72870625Y-106245600D02*
X72775387Y-106293219D01*
X72775387Y-106293219D02*
X72584911Y-106293219D01*
X72584911Y-106293219D02*
X72489673Y-106245600D01*
X72489673Y-106245600D02*
X72442054Y-106150361D01*
X72442054Y-106150361D02*
X72442054Y-105769409D01*
X72442054Y-105769409D02*
X72489673Y-105674171D01*
X72489673Y-105674171D02*
X72584911Y-105626552D01*
X72584911Y-105626552D02*
X72775387Y-105626552D01*
X72775387Y-105626552D02*
X72870625Y-105674171D01*
X72870625Y-105674171D02*
X72918244Y-105769409D01*
X72918244Y-105769409D02*
X72918244Y-105864647D01*
X72918244Y-105864647D02*
X72442054Y-105959885D01*
X73346816Y-106293219D02*
X73346816Y-105626552D01*
X73346816Y-105721790D02*
X73394435Y-105674171D01*
X73394435Y-105674171D02*
X73489673Y-105626552D01*
X73489673Y-105626552D02*
X73632530Y-105626552D01*
X73632530Y-105626552D02*
X73727768Y-105674171D01*
X73727768Y-105674171D02*
X73775387Y-105769409D01*
X73775387Y-105769409D02*
X73775387Y-106293219D01*
X73775387Y-105769409D02*
X73823006Y-105674171D01*
X73823006Y-105674171D02*
X73918244Y-105626552D01*
X73918244Y-105626552D02*
X74061101Y-105626552D01*
X74061101Y-105626552D02*
X74156340Y-105674171D01*
X74156340Y-105674171D02*
X74203959Y-105769409D01*
X74203959Y-105769409D02*
X74203959Y-106293219D01*
X74823006Y-106293219D02*
X74727768Y-106245600D01*
X74727768Y-106245600D02*
X74680149Y-106197980D01*
X74680149Y-106197980D02*
X74632530Y-106102742D01*
X74632530Y-106102742D02*
X74632530Y-105817028D01*
X74632530Y-105817028D02*
X74680149Y-105721790D01*
X74680149Y-105721790D02*
X74727768Y-105674171D01*
X74727768Y-105674171D02*
X74823006Y-105626552D01*
X74823006Y-105626552D02*
X74965863Y-105626552D01*
X74965863Y-105626552D02*
X75061101Y-105674171D01*
X75061101Y-105674171D02*
X75108720Y-105721790D01*
X75108720Y-105721790D02*
X75156339Y-105817028D01*
X75156339Y-105817028D02*
X75156339Y-106102742D01*
X75156339Y-106102742D02*
X75108720Y-106197980D01*
X75108720Y-106197980D02*
X75061101Y-106245600D01*
X75061101Y-106245600D02*
X74965863Y-106293219D01*
X74965863Y-106293219D02*
X74823006Y-106293219D01*
X75442054Y-105626552D02*
X75823006Y-105626552D01*
X75584911Y-105293219D02*
X75584911Y-106150361D01*
X75584911Y-106150361D02*
X75632530Y-106245600D01*
X75632530Y-106245600D02*
X75727768Y-106293219D01*
X75727768Y-106293219D02*
X75823006Y-106293219D01*
X76537292Y-106245600D02*
X76442054Y-106293219D01*
X76442054Y-106293219D02*
X76251578Y-106293219D01*
X76251578Y-106293219D02*
X76156340Y-106245600D01*
X76156340Y-106245600D02*
X76108721Y-106150361D01*
X76108721Y-106150361D02*
X76108721Y-105769409D01*
X76108721Y-105769409D02*
X76156340Y-105674171D01*
X76156340Y-105674171D02*
X76251578Y-105626552D01*
X76251578Y-105626552D02*
X76442054Y-105626552D01*
X76442054Y-105626552D02*
X76537292Y-105674171D01*
X76537292Y-105674171D02*
X76584911Y-105769409D01*
X76584911Y-105769409D02*
X76584911Y-105864647D01*
X76584911Y-105864647D02*
X76108721Y-105959885D01*
X77632531Y-105293219D02*
X77965864Y-106293219D01*
X77965864Y-106293219D02*
X78299197Y-105293219D01*
X78584912Y-105388457D02*
X78632531Y-105340838D01*
X78632531Y-105340838D02*
X78727769Y-105293219D01*
X78727769Y-105293219D02*
X78965864Y-105293219D01*
X78965864Y-105293219D02*
X79061102Y-105340838D01*
X79061102Y-105340838D02*
X79108721Y-105388457D01*
X79108721Y-105388457D02*
X79156340Y-105483695D01*
X79156340Y-105483695D02*
X79156340Y-105578933D01*
X79156340Y-105578933D02*
X79108721Y-105721790D01*
X79108721Y-105721790D02*
X78537293Y-106293219D01*
X78537293Y-106293219D02*
X79156340Y-106293219D01*
X80537293Y-105293219D02*
X80632531Y-105293219D01*
X80632531Y-105293219D02*
X80727769Y-105340838D01*
X80727769Y-105340838D02*
X80775388Y-105388457D01*
X80775388Y-105388457D02*
X80823007Y-105483695D01*
X80823007Y-105483695D02*
X80870626Y-105674171D01*
X80870626Y-105674171D02*
X80870626Y-105912266D01*
X80870626Y-105912266D02*
X80823007Y-106102742D01*
X80823007Y-106102742D02*
X80775388Y-106197980D01*
X80775388Y-106197980D02*
X80727769Y-106245600D01*
X80727769Y-106245600D02*
X80632531Y-106293219D01*
X80632531Y-106293219D02*
X80537293Y-106293219D01*
X80537293Y-106293219D02*
X80442055Y-106245600D01*
X80442055Y-106245600D02*
X80394436Y-106197980D01*
X80394436Y-106197980D02*
X80346817Y-106102742D01*
X80346817Y-106102742D02*
X80299198Y-105912266D01*
X80299198Y-105912266D02*
X80299198Y-105674171D01*
X80299198Y-105674171D02*
X80346817Y-105483695D01*
X80346817Y-105483695D02*
X80394436Y-105388457D01*
X80394436Y-105388457D02*
X80442055Y-105340838D01*
X80442055Y-105340838D02*
X80537293Y-105293219D01*
X81727769Y-105293219D02*
X81537293Y-105293219D01*
X81537293Y-105293219D02*
X81442055Y-105340838D01*
X81442055Y-105340838D02*
X81394436Y-105388457D01*
X81394436Y-105388457D02*
X81299198Y-105531314D01*
X81299198Y-105531314D02*
X81251579Y-105721790D01*
X81251579Y-105721790D02*
X81251579Y-106102742D01*
X81251579Y-106102742D02*
X81299198Y-106197980D01*
X81299198Y-106197980D02*
X81346817Y-106245600D01*
X81346817Y-106245600D02*
X81442055Y-106293219D01*
X81442055Y-106293219D02*
X81632531Y-106293219D01*
X81632531Y-106293219D02*
X81727769Y-106245600D01*
X81727769Y-106245600D02*
X81775388Y-106197980D01*
X81775388Y-106197980D02*
X81823007Y-106102742D01*
X81823007Y-106102742D02*
X81823007Y-105864647D01*
X81823007Y-105864647D02*
X81775388Y-105769409D01*
X81775388Y-105769409D02*
X81727769Y-105721790D01*
X81727769Y-105721790D02*
X81632531Y-105674171D01*
X81632531Y-105674171D02*
X81442055Y-105674171D01*
X81442055Y-105674171D02*
X81346817Y-105721790D01*
X81346817Y-105721790D02*
X81299198Y-105769409D01*
X81299198Y-105769409D02*
X81251579Y-105864647D01*
X82251579Y-106197980D02*
X82299198Y-106245600D01*
X82299198Y-106245600D02*
X82251579Y-106293219D01*
X82251579Y-106293219D02*
X82203960Y-106245600D01*
X82203960Y-106245600D02*
X82251579Y-106197980D01*
X82251579Y-106197980D02*
X82251579Y-106293219D01*
X82680150Y-105388457D02*
X82727769Y-105340838D01*
X82727769Y-105340838D02*
X82823007Y-105293219D01*
X82823007Y-105293219D02*
X83061102Y-105293219D01*
X83061102Y-105293219D02*
X83156340Y-105340838D01*
X83156340Y-105340838D02*
X83203959Y-105388457D01*
X83203959Y-105388457D02*
X83251578Y-105483695D01*
X83251578Y-105483695D02*
X83251578Y-105578933D01*
X83251578Y-105578933D02*
X83203959Y-105721790D01*
X83203959Y-105721790D02*
X82632531Y-106293219D01*
X82632531Y-106293219D02*
X83251578Y-106293219D01*
X83870626Y-105293219D02*
X83965864Y-105293219D01*
X83965864Y-105293219D02*
X84061102Y-105340838D01*
X84061102Y-105340838D02*
X84108721Y-105388457D01*
X84108721Y-105388457D02*
X84156340Y-105483695D01*
X84156340Y-105483695D02*
X84203959Y-105674171D01*
X84203959Y-105674171D02*
X84203959Y-105912266D01*
X84203959Y-105912266D02*
X84156340Y-106102742D01*
X84156340Y-106102742D02*
X84108721Y-106197980D01*
X84108721Y-106197980D02*
X84061102Y-106245600D01*
X84061102Y-106245600D02*
X83965864Y-106293219D01*
X83965864Y-106293219D02*
X83870626Y-106293219D01*
X83870626Y-106293219D02*
X83775388Y-106245600D01*
X83775388Y-106245600D02*
X83727769Y-106197980D01*
X83727769Y-106197980D02*
X83680150Y-106102742D01*
X83680150Y-106102742D02*
X83632531Y-105912266D01*
X83632531Y-105912266D02*
X83632531Y-105674171D01*
X83632531Y-105674171D02*
X83680150Y-105483695D01*
X83680150Y-105483695D02*
X83727769Y-105388457D01*
X83727769Y-105388457D02*
X83775388Y-105340838D01*
X83775388Y-105340838D02*
X83870626Y-105293219D01*
X84584912Y-105388457D02*
X84632531Y-105340838D01*
X84632531Y-105340838D02*
X84727769Y-105293219D01*
X84727769Y-105293219D02*
X84965864Y-105293219D01*
X84965864Y-105293219D02*
X85061102Y-105340838D01*
X85061102Y-105340838D02*
X85108721Y-105388457D01*
X85108721Y-105388457D02*
X85156340Y-105483695D01*
X85156340Y-105483695D02*
X85156340Y-105578933D01*
X85156340Y-105578933D02*
X85108721Y-105721790D01*
X85108721Y-105721790D02*
X84537293Y-106293219D01*
X84537293Y-106293219D02*
X85156340Y-106293219D01*
X86013483Y-105293219D02*
X85823007Y-105293219D01*
X85823007Y-105293219D02*
X85727769Y-105340838D01*
X85727769Y-105340838D02*
X85680150Y-105388457D01*
X85680150Y-105388457D02*
X85584912Y-105531314D01*
X85584912Y-105531314D02*
X85537293Y-105721790D01*
X85537293Y-105721790D02*
X85537293Y-106102742D01*
X85537293Y-106102742D02*
X85584912Y-106197980D01*
X85584912Y-106197980D02*
X85632531Y-106245600D01*
X85632531Y-106245600D02*
X85727769Y-106293219D01*
X85727769Y-106293219D02*
X85918245Y-106293219D01*
X85918245Y-106293219D02*
X86013483Y-106245600D01*
X86013483Y-106245600D02*
X86061102Y-106197980D01*
X86061102Y-106197980D02*
X86108721Y-106102742D01*
X86108721Y-106102742D02*
X86108721Y-105864647D01*
X86108721Y-105864647D02*
X86061102Y-105769409D01*
X86061102Y-105769409D02*
X86013483Y-105721790D01*
X86013483Y-105721790D02*
X85918245Y-105674171D01*
X85918245Y-105674171D02*
X85727769Y-105674171D01*
X85727769Y-105674171D02*
X85632531Y-105721790D01*
X85632531Y-105721790D02*
X85584912Y-105769409D01*
X85584912Y-105769409D02*
X85537293Y-105864647D01*
X75807673Y-104261219D02*
X75807673Y-103261219D01*
X75807673Y-103261219D02*
X76045768Y-103261219D01*
X76045768Y-103261219D02*
X76188625Y-103308838D01*
X76188625Y-103308838D02*
X76283863Y-103404076D01*
X76283863Y-103404076D02*
X76331482Y-103499314D01*
X76331482Y-103499314D02*
X76379101Y-103689790D01*
X76379101Y-103689790D02*
X76379101Y-103832647D01*
X76379101Y-103832647D02*
X76331482Y-104023123D01*
X76331482Y-104023123D02*
X76283863Y-104118361D01*
X76283863Y-104118361D02*
X76188625Y-104213600D01*
X76188625Y-104213600D02*
X76045768Y-104261219D01*
X76045768Y-104261219D02*
X75807673Y-104261219D01*
X76712435Y-103594552D02*
X76950530Y-104261219D01*
X77188625Y-103594552D02*
X76950530Y-104261219D01*
X76950530Y-104261219D02*
X76855292Y-104499314D01*
X76855292Y-104499314D02*
X76807673Y-104546933D01*
X76807673Y-104546933D02*
X76712435Y-104594552D01*
X77712435Y-104261219D02*
X77617197Y-104213600D01*
X77617197Y-104213600D02*
X77569578Y-104118361D01*
X77569578Y-104118361D02*
X77569578Y-103261219D01*
X78521959Y-104261219D02*
X78521959Y-103737409D01*
X78521959Y-103737409D02*
X78474340Y-103642171D01*
X78474340Y-103642171D02*
X78379102Y-103594552D01*
X78379102Y-103594552D02*
X78188626Y-103594552D01*
X78188626Y-103594552D02*
X78093388Y-103642171D01*
X78521959Y-104213600D02*
X78426721Y-104261219D01*
X78426721Y-104261219D02*
X78188626Y-104261219D01*
X78188626Y-104261219D02*
X78093388Y-104213600D01*
X78093388Y-104213600D02*
X78045769Y-104118361D01*
X78045769Y-104118361D02*
X78045769Y-104023123D01*
X78045769Y-104023123D02*
X78093388Y-103927885D01*
X78093388Y-103927885D02*
X78188626Y-103880266D01*
X78188626Y-103880266D02*
X78426721Y-103880266D01*
X78426721Y-103880266D02*
X78521959Y-103832647D01*
X78998150Y-103594552D02*
X78998150Y-104261219D01*
X78998150Y-103689790D02*
X79045769Y-103642171D01*
X79045769Y-103642171D02*
X79141007Y-103594552D01*
X79141007Y-103594552D02*
X79283864Y-103594552D01*
X79283864Y-103594552D02*
X79379102Y-103642171D01*
X79379102Y-103642171D02*
X79426721Y-103737409D01*
X79426721Y-103737409D02*
X79426721Y-104261219D01*
X81236245Y-104165980D02*
X81188626Y-104213600D01*
X81188626Y-104213600D02*
X81045769Y-104261219D01*
X81045769Y-104261219D02*
X80950531Y-104261219D01*
X80950531Y-104261219D02*
X80807674Y-104213600D01*
X80807674Y-104213600D02*
X80712436Y-104118361D01*
X80712436Y-104118361D02*
X80664817Y-104023123D01*
X80664817Y-104023123D02*
X80617198Y-103832647D01*
X80617198Y-103832647D02*
X80617198Y-103689790D01*
X80617198Y-103689790D02*
X80664817Y-103499314D01*
X80664817Y-103499314D02*
X80712436Y-103404076D01*
X80712436Y-103404076D02*
X80807674Y-103308838D01*
X80807674Y-103308838D02*
X80950531Y-103261219D01*
X80950531Y-103261219D02*
X81045769Y-103261219D01*
X81045769Y-103261219D02*
X81188626Y-103308838D01*
X81188626Y-103308838D02*
X81236245Y-103356457D01*
X81807674Y-104261219D02*
X81712436Y-104213600D01*
X81712436Y-104213600D02*
X81664817Y-104165980D01*
X81664817Y-104165980D02*
X81617198Y-104070742D01*
X81617198Y-104070742D02*
X81617198Y-103785028D01*
X81617198Y-103785028D02*
X81664817Y-103689790D01*
X81664817Y-103689790D02*
X81712436Y-103642171D01*
X81712436Y-103642171D02*
X81807674Y-103594552D01*
X81807674Y-103594552D02*
X81950531Y-103594552D01*
X81950531Y-103594552D02*
X82045769Y-103642171D01*
X82045769Y-103642171D02*
X82093388Y-103689790D01*
X82093388Y-103689790D02*
X82141007Y-103785028D01*
X82141007Y-103785028D02*
X82141007Y-104070742D01*
X82141007Y-104070742D02*
X82093388Y-104165980D01*
X82093388Y-104165980D02*
X82045769Y-104213600D01*
X82045769Y-104213600D02*
X81950531Y-104261219D01*
X81950531Y-104261219D02*
X81807674Y-104261219D01*
X82712436Y-104261219D02*
X82617198Y-104213600D01*
X82617198Y-104213600D02*
X82569579Y-104118361D01*
X82569579Y-104118361D02*
X82569579Y-103261219D01*
X83236246Y-104261219D02*
X83141008Y-104213600D01*
X83141008Y-104213600D02*
X83093389Y-104118361D01*
X83093389Y-104118361D02*
X83093389Y-103261219D01*
X84045770Y-104261219D02*
X84045770Y-103737409D01*
X84045770Y-103737409D02*
X83998151Y-103642171D01*
X83998151Y-103642171D02*
X83902913Y-103594552D01*
X83902913Y-103594552D02*
X83712437Y-103594552D01*
X83712437Y-103594552D02*
X83617199Y-103642171D01*
X84045770Y-104213600D02*
X83950532Y-104261219D01*
X83950532Y-104261219D02*
X83712437Y-104261219D01*
X83712437Y-104261219D02*
X83617199Y-104213600D01*
X83617199Y-104213600D02*
X83569580Y-104118361D01*
X83569580Y-104118361D02*
X83569580Y-104023123D01*
X83569580Y-104023123D02*
X83617199Y-103927885D01*
X83617199Y-103927885D02*
X83712437Y-103880266D01*
X83712437Y-103880266D02*
X83950532Y-103880266D01*
X83950532Y-103880266D02*
X84045770Y-103832647D01*
X84950532Y-103594552D02*
X84950532Y-104261219D01*
X84521961Y-103594552D02*
X84521961Y-104118361D01*
X84521961Y-104118361D02*
X84569580Y-104213600D01*
X84569580Y-104213600D02*
X84664818Y-104261219D01*
X84664818Y-104261219D02*
X84807675Y-104261219D01*
X84807675Y-104261219D02*
X84902913Y-104213600D01*
X84902913Y-104213600D02*
X84950532Y-104165980D01*
X85855294Y-104261219D02*
X85855294Y-103261219D01*
X85855294Y-104213600D02*
X85760056Y-104261219D01*
X85760056Y-104261219D02*
X85569580Y-104261219D01*
X85569580Y-104261219D02*
X85474342Y-104213600D01*
X85474342Y-104213600D02*
X85426723Y-104165980D01*
X85426723Y-104165980D02*
X85379104Y-104070742D01*
X85379104Y-104070742D02*
X85379104Y-103785028D01*
X85379104Y-103785028D02*
X85426723Y-103689790D01*
X85426723Y-103689790D02*
X85474342Y-103642171D01*
X85474342Y-103642171D02*
X85569580Y-103594552D01*
X85569580Y-103594552D02*
X85760056Y-103594552D01*
X85760056Y-103594552D02*
X85855294Y-103642171D01*
D11*
X72860819Y-104385904D02*
X72860819Y-103814476D01*
X73860819Y-104100190D02*
X72860819Y-104100190D01*
X73860819Y-103481142D02*
X72860819Y-103481142D01*
X72860819Y-103481142D02*
X72860819Y-103100190D01*
X72860819Y-103100190D02*
X72908438Y-103004952D01*
X72908438Y-103004952D02*
X72956057Y-102957333D01*
X72956057Y-102957333D02*
X73051295Y-102909714D01*
X73051295Y-102909714D02*
X73194152Y-102909714D01*
X73194152Y-102909714D02*
X73289390Y-102957333D01*
X73289390Y-102957333D02*
X73337009Y-103004952D01*
X73337009Y-103004952D02*
X73384628Y-103100190D01*
X73384628Y-103100190D02*
X73384628Y-103481142D01*
X72956057Y-102528761D02*
X72908438Y-102481142D01*
X72908438Y-102481142D02*
X72860819Y-102385904D01*
X72860819Y-102385904D02*
X72860819Y-102147809D01*
X72860819Y-102147809D02*
X72908438Y-102052571D01*
X72908438Y-102052571D02*
X72956057Y-102004952D01*
X72956057Y-102004952D02*
X73051295Y-101957333D01*
X73051295Y-101957333D02*
X73146533Y-101957333D01*
X73146533Y-101957333D02*
X73289390Y-102004952D01*
X73289390Y-102004952D02*
X73860819Y-102576380D01*
X73860819Y-102576380D02*
X73860819Y-101957333D01*
X65794095Y-73752819D02*
X66365523Y-73752819D01*
X66079809Y-74752819D02*
X66079809Y-73752819D01*
X66698857Y-74752819D02*
X66698857Y-73752819D01*
X66698857Y-73752819D02*
X67079809Y-73752819D01*
X67079809Y-73752819D02*
X67175047Y-73800438D01*
X67175047Y-73800438D02*
X67222666Y-73848057D01*
X67222666Y-73848057D02*
X67270285Y-73943295D01*
X67270285Y-73943295D02*
X67270285Y-74086152D01*
X67270285Y-74086152D02*
X67222666Y-74181390D01*
X67222666Y-74181390D02*
X67175047Y-74229009D01*
X67175047Y-74229009D02*
X67079809Y-74276628D01*
X67079809Y-74276628D02*
X66698857Y-74276628D01*
X68222666Y-74752819D02*
X67651238Y-74752819D01*
X67936952Y-74752819D02*
X67936952Y-73752819D01*
X67936952Y-73752819D02*
X67841714Y-73895676D01*
X67841714Y-73895676D02*
X67746476Y-73990914D01*
X67746476Y-73990914D02*
X67651238Y-74038533D01*
X65240819Y-94059333D02*
X65955104Y-94059333D01*
X65955104Y-94059333D02*
X66097961Y-94106952D01*
X66097961Y-94106952D02*
X66193200Y-94202190D01*
X66193200Y-94202190D02*
X66240819Y-94345047D01*
X66240819Y-94345047D02*
X66240819Y-94440285D01*
X65336057Y-93630761D02*
X65288438Y-93583142D01*
X65288438Y-93583142D02*
X65240819Y-93487904D01*
X65240819Y-93487904D02*
X65240819Y-93249809D01*
X65240819Y-93249809D02*
X65288438Y-93154571D01*
X65288438Y-93154571D02*
X65336057Y-93106952D01*
X65336057Y-93106952D02*
X65431295Y-93059333D01*
X65431295Y-93059333D02*
X65526533Y-93059333D01*
X65526533Y-93059333D02*
X65669390Y-93106952D01*
X65669390Y-93106952D02*
X66240819Y-93678380D01*
X66240819Y-93678380D02*
X66240819Y-93059333D01*
X99927580Y-93522266D02*
X99975200Y-93569885D01*
X99975200Y-93569885D02*
X100022819Y-93712742D01*
X100022819Y-93712742D02*
X100022819Y-93807980D01*
X100022819Y-93807980D02*
X99975200Y-93950837D01*
X99975200Y-93950837D02*
X99879961Y-94046075D01*
X99879961Y-94046075D02*
X99784723Y-94093694D01*
X99784723Y-94093694D02*
X99594247Y-94141313D01*
X99594247Y-94141313D02*
X99451390Y-94141313D01*
X99451390Y-94141313D02*
X99260914Y-94093694D01*
X99260914Y-94093694D02*
X99165676Y-94046075D01*
X99165676Y-94046075D02*
X99070438Y-93950837D01*
X99070438Y-93950837D02*
X99022819Y-93807980D01*
X99022819Y-93807980D02*
X99022819Y-93712742D01*
X99022819Y-93712742D02*
X99070438Y-93569885D01*
X99070438Y-93569885D02*
X99118057Y-93522266D01*
X99022819Y-92665123D02*
X99022819Y-92855599D01*
X99022819Y-92855599D02*
X99070438Y-92950837D01*
X99070438Y-92950837D02*
X99118057Y-92998456D01*
X99118057Y-92998456D02*
X99260914Y-93093694D01*
X99260914Y-93093694D02*
X99451390Y-93141313D01*
X99451390Y-93141313D02*
X99832342Y-93141313D01*
X99832342Y-93141313D02*
X99927580Y-93093694D01*
X99927580Y-93093694D02*
X99975200Y-93046075D01*
X99975200Y-93046075D02*
X100022819Y-92950837D01*
X100022819Y-92950837D02*
X100022819Y-92760361D01*
X100022819Y-92760361D02*
X99975200Y-92665123D01*
X99975200Y-92665123D02*
X99927580Y-92617504D01*
X99927580Y-92617504D02*
X99832342Y-92569885D01*
X99832342Y-92569885D02*
X99594247Y-92569885D01*
X99594247Y-92569885D02*
X99499009Y-92617504D01*
X99499009Y-92617504D02*
X99451390Y-92665123D01*
X99451390Y-92665123D02*
X99403771Y-92760361D01*
X99403771Y-92760361D02*
X99403771Y-92950837D01*
X99403771Y-92950837D02*
X99451390Y-93046075D01*
X99451390Y-93046075D02*
X99499009Y-93093694D01*
X99499009Y-93093694D02*
X99594247Y-93141313D01*
X110761542Y-101112219D02*
X110428209Y-100636028D01*
X110190114Y-101112219D02*
X110190114Y-100112219D01*
X110190114Y-100112219D02*
X110571066Y-100112219D01*
X110571066Y-100112219D02*
X110666304Y-100159838D01*
X110666304Y-100159838D02*
X110713923Y-100207457D01*
X110713923Y-100207457D02*
X110761542Y-100302695D01*
X110761542Y-100302695D02*
X110761542Y-100445552D01*
X110761542Y-100445552D02*
X110713923Y-100540790D01*
X110713923Y-100540790D02*
X110666304Y-100588409D01*
X110666304Y-100588409D02*
X110571066Y-100636028D01*
X110571066Y-100636028D02*
X110190114Y-100636028D01*
X111713923Y-101112219D02*
X111142495Y-101112219D01*
X111428209Y-101112219D02*
X111428209Y-100112219D01*
X111428209Y-100112219D02*
X111332971Y-100255076D01*
X111332971Y-100255076D02*
X111237733Y-100350314D01*
X111237733Y-100350314D02*
X111142495Y-100397933D01*
X112190114Y-101112219D02*
X112380590Y-101112219D01*
X112380590Y-101112219D02*
X112475828Y-101064600D01*
X112475828Y-101064600D02*
X112523447Y-101016980D01*
X112523447Y-101016980D02*
X112618685Y-100874123D01*
X112618685Y-100874123D02*
X112666304Y-100683647D01*
X112666304Y-100683647D02*
X112666304Y-100302695D01*
X112666304Y-100302695D02*
X112618685Y-100207457D01*
X112618685Y-100207457D02*
X112571066Y-100159838D01*
X112571066Y-100159838D02*
X112475828Y-100112219D01*
X112475828Y-100112219D02*
X112285352Y-100112219D01*
X112285352Y-100112219D02*
X112190114Y-100159838D01*
X112190114Y-100159838D02*
X112142495Y-100207457D01*
X112142495Y-100207457D02*
X112094876Y-100302695D01*
X112094876Y-100302695D02*
X112094876Y-100540790D01*
X112094876Y-100540790D02*
X112142495Y-100636028D01*
X112142495Y-100636028D02*
X112190114Y-100683647D01*
X112190114Y-100683647D02*
X112285352Y-100731266D01*
X112285352Y-100731266D02*
X112475828Y-100731266D01*
X112475828Y-100731266D02*
X112571066Y-100683647D01*
X112571066Y-100683647D02*
X112618685Y-100636028D01*
X112618685Y-100636028D02*
X112666304Y-100540790D01*
X110812342Y-90444219D02*
X110479009Y-89968028D01*
X110240914Y-90444219D02*
X110240914Y-89444219D01*
X110240914Y-89444219D02*
X110621866Y-89444219D01*
X110621866Y-89444219D02*
X110717104Y-89491838D01*
X110717104Y-89491838D02*
X110764723Y-89539457D01*
X110764723Y-89539457D02*
X110812342Y-89634695D01*
X110812342Y-89634695D02*
X110812342Y-89777552D01*
X110812342Y-89777552D02*
X110764723Y-89872790D01*
X110764723Y-89872790D02*
X110717104Y-89920409D01*
X110717104Y-89920409D02*
X110621866Y-89968028D01*
X110621866Y-89968028D02*
X110240914Y-89968028D01*
X111764723Y-90444219D02*
X111193295Y-90444219D01*
X111479009Y-90444219D02*
X111479009Y-89444219D01*
X111479009Y-89444219D02*
X111383771Y-89587076D01*
X111383771Y-89587076D02*
X111288533Y-89682314D01*
X111288533Y-89682314D02*
X111193295Y-89729933D01*
X112098057Y-89444219D02*
X112717104Y-89444219D01*
X112717104Y-89444219D02*
X112383771Y-89825171D01*
X112383771Y-89825171D02*
X112526628Y-89825171D01*
X112526628Y-89825171D02*
X112621866Y-89872790D01*
X112621866Y-89872790D02*
X112669485Y-89920409D01*
X112669485Y-89920409D02*
X112717104Y-90015647D01*
X112717104Y-90015647D02*
X112717104Y-90253742D01*
X112717104Y-90253742D02*
X112669485Y-90348980D01*
X112669485Y-90348980D02*
X112621866Y-90396600D01*
X112621866Y-90396600D02*
X112526628Y-90444219D01*
X112526628Y-90444219D02*
X112240914Y-90444219D01*
X112240914Y-90444219D02*
X112145676Y-90396600D01*
X112145676Y-90396600D02*
X112098057Y-90348980D01*
X103223219Y-102671857D02*
X102747028Y-103005190D01*
X103223219Y-103243285D02*
X102223219Y-103243285D01*
X102223219Y-103243285D02*
X102223219Y-102862333D01*
X102223219Y-102862333D02*
X102270838Y-102767095D01*
X102270838Y-102767095D02*
X102318457Y-102719476D01*
X102318457Y-102719476D02*
X102413695Y-102671857D01*
X102413695Y-102671857D02*
X102556552Y-102671857D01*
X102556552Y-102671857D02*
X102651790Y-102719476D01*
X102651790Y-102719476D02*
X102699409Y-102767095D01*
X102699409Y-102767095D02*
X102747028Y-102862333D01*
X102747028Y-102862333D02*
X102747028Y-103243285D01*
X103223219Y-101719476D02*
X103223219Y-102290904D01*
X103223219Y-102005190D02*
X102223219Y-102005190D01*
X102223219Y-102005190D02*
X102366076Y-102100428D01*
X102366076Y-102100428D02*
X102461314Y-102195666D01*
X102461314Y-102195666D02*
X102508933Y-102290904D01*
X102651790Y-101148047D02*
X102604171Y-101243285D01*
X102604171Y-101243285D02*
X102556552Y-101290904D01*
X102556552Y-101290904D02*
X102461314Y-101338523D01*
X102461314Y-101338523D02*
X102413695Y-101338523D01*
X102413695Y-101338523D02*
X102318457Y-101290904D01*
X102318457Y-101290904D02*
X102270838Y-101243285D01*
X102270838Y-101243285D02*
X102223219Y-101148047D01*
X102223219Y-101148047D02*
X102223219Y-100957571D01*
X102223219Y-100957571D02*
X102270838Y-100862333D01*
X102270838Y-100862333D02*
X102318457Y-100814714D01*
X102318457Y-100814714D02*
X102413695Y-100767095D01*
X102413695Y-100767095D02*
X102461314Y-100767095D01*
X102461314Y-100767095D02*
X102556552Y-100814714D01*
X102556552Y-100814714D02*
X102604171Y-100862333D01*
X102604171Y-100862333D02*
X102651790Y-100957571D01*
X102651790Y-100957571D02*
X102651790Y-101148047D01*
X102651790Y-101148047D02*
X102699409Y-101243285D01*
X102699409Y-101243285D02*
X102747028Y-101290904D01*
X102747028Y-101290904D02*
X102842266Y-101338523D01*
X102842266Y-101338523D02*
X103032742Y-101338523D01*
X103032742Y-101338523D02*
X103127980Y-101290904D01*
X103127980Y-101290904D02*
X103175600Y-101243285D01*
X103175600Y-101243285D02*
X103223219Y-101148047D01*
X103223219Y-101148047D02*
X103223219Y-100957571D01*
X103223219Y-100957571D02*
X103175600Y-100862333D01*
X103175600Y-100862333D02*
X103127980Y-100814714D01*
X103127980Y-100814714D02*
X103032742Y-100767095D01*
X103032742Y-100767095D02*
X102842266Y-100767095D01*
X102842266Y-100767095D02*
X102747028Y-100814714D01*
X102747028Y-100814714D02*
X102699409Y-100862333D01*
X102699409Y-100862333D02*
X102651790Y-100957571D01*
X69509471Y-93854457D02*
X69414233Y-93806838D01*
X69414233Y-93806838D02*
X69318995Y-93711600D01*
X69318995Y-93711600D02*
X69176138Y-93568742D01*
X69176138Y-93568742D02*
X69080900Y-93521123D01*
X69080900Y-93521123D02*
X68985662Y-93521123D01*
X69033281Y-93759219D02*
X68938043Y-93711600D01*
X68938043Y-93711600D02*
X68842805Y-93616361D01*
X68842805Y-93616361D02*
X68795186Y-93425885D01*
X68795186Y-93425885D02*
X68795186Y-93092552D01*
X68795186Y-93092552D02*
X68842805Y-92902076D01*
X68842805Y-92902076D02*
X68938043Y-92806838D01*
X68938043Y-92806838D02*
X69033281Y-92759219D01*
X69033281Y-92759219D02*
X69223757Y-92759219D01*
X69223757Y-92759219D02*
X69318995Y-92806838D01*
X69318995Y-92806838D02*
X69414233Y-92902076D01*
X69414233Y-92902076D02*
X69461852Y-93092552D01*
X69461852Y-93092552D02*
X69461852Y-93425885D01*
X69461852Y-93425885D02*
X69414233Y-93616361D01*
X69414233Y-93616361D02*
X69318995Y-93711600D01*
X69318995Y-93711600D02*
X69223757Y-93759219D01*
X69223757Y-93759219D02*
X69033281Y-93759219D01*
X70414233Y-93759219D02*
X69842805Y-93759219D01*
X70128519Y-93759219D02*
X70128519Y-92759219D01*
X70128519Y-92759219D02*
X70033281Y-92902076D01*
X70033281Y-92902076D02*
X69938043Y-92997314D01*
X69938043Y-92997314D02*
X69842805Y-93044933D01*
X70795186Y-92854457D02*
X70842805Y-92806838D01*
X70842805Y-92806838D02*
X70938043Y-92759219D01*
X70938043Y-92759219D02*
X71176138Y-92759219D01*
X71176138Y-92759219D02*
X71271376Y-92806838D01*
X71271376Y-92806838D02*
X71318995Y-92854457D01*
X71318995Y-92854457D02*
X71366614Y-92949695D01*
X71366614Y-92949695D02*
X71366614Y-93044933D01*
X71366614Y-93044933D02*
X71318995Y-93187790D01*
X71318995Y-93187790D02*
X70747567Y-93759219D01*
X70747567Y-93759219D02*
X71366614Y-93759219D01*
X103223219Y-80975366D02*
X102747028Y-81308699D01*
X103223219Y-81546794D02*
X102223219Y-81546794D01*
X102223219Y-81546794D02*
X102223219Y-81165842D01*
X102223219Y-81165842D02*
X102270838Y-81070604D01*
X102270838Y-81070604D02*
X102318457Y-81022985D01*
X102318457Y-81022985D02*
X102413695Y-80975366D01*
X102413695Y-80975366D02*
X102556552Y-80975366D01*
X102556552Y-80975366D02*
X102651790Y-81022985D01*
X102651790Y-81022985D02*
X102699409Y-81070604D01*
X102699409Y-81070604D02*
X102747028Y-81165842D01*
X102747028Y-81165842D02*
X102747028Y-81546794D01*
X102223219Y-80118223D02*
X102223219Y-80308699D01*
X102223219Y-80308699D02*
X102270838Y-80403937D01*
X102270838Y-80403937D02*
X102318457Y-80451556D01*
X102318457Y-80451556D02*
X102461314Y-80546794D01*
X102461314Y-80546794D02*
X102651790Y-80594413D01*
X102651790Y-80594413D02*
X103032742Y-80594413D01*
X103032742Y-80594413D02*
X103127980Y-80546794D01*
X103127980Y-80546794D02*
X103175600Y-80499175D01*
X103175600Y-80499175D02*
X103223219Y-80403937D01*
X103223219Y-80403937D02*
X103223219Y-80213461D01*
X103223219Y-80213461D02*
X103175600Y-80118223D01*
X103175600Y-80118223D02*
X103127980Y-80070604D01*
X103127980Y-80070604D02*
X103032742Y-80022985D01*
X103032742Y-80022985D02*
X102794647Y-80022985D01*
X102794647Y-80022985D02*
X102699409Y-80070604D01*
X102699409Y-80070604D02*
X102651790Y-80118223D01*
X102651790Y-80118223D02*
X102604171Y-80213461D01*
X102604171Y-80213461D02*
X102604171Y-80403937D01*
X102604171Y-80403937D02*
X102651790Y-80499175D01*
X102651790Y-80499175D02*
X102699409Y-80546794D01*
X102699409Y-80546794D02*
X102794647Y-80594413D01*
X69407871Y-97322957D02*
X69312633Y-97275338D01*
X69312633Y-97275338D02*
X69217395Y-97180100D01*
X69217395Y-97180100D02*
X69074538Y-97037242D01*
X69074538Y-97037242D02*
X68979300Y-96989623D01*
X68979300Y-96989623D02*
X68884062Y-96989623D01*
X68931681Y-97227719D02*
X68836443Y-97180100D01*
X68836443Y-97180100D02*
X68741205Y-97084861D01*
X68741205Y-97084861D02*
X68693586Y-96894385D01*
X68693586Y-96894385D02*
X68693586Y-96561052D01*
X68693586Y-96561052D02*
X68741205Y-96370576D01*
X68741205Y-96370576D02*
X68836443Y-96275338D01*
X68836443Y-96275338D02*
X68931681Y-96227719D01*
X68931681Y-96227719D02*
X69122157Y-96227719D01*
X69122157Y-96227719D02*
X69217395Y-96275338D01*
X69217395Y-96275338D02*
X69312633Y-96370576D01*
X69312633Y-96370576D02*
X69360252Y-96561052D01*
X69360252Y-96561052D02*
X69360252Y-96894385D01*
X69360252Y-96894385D02*
X69312633Y-97084861D01*
X69312633Y-97084861D02*
X69217395Y-97180100D01*
X69217395Y-97180100D02*
X69122157Y-97227719D01*
X69122157Y-97227719D02*
X68931681Y-97227719D01*
X70312633Y-97227719D02*
X69741205Y-97227719D01*
X70026919Y-97227719D02*
X70026919Y-96227719D01*
X70026919Y-96227719D02*
X69931681Y-96370576D01*
X69931681Y-96370576D02*
X69836443Y-96465814D01*
X69836443Y-96465814D02*
X69741205Y-96513433D01*
X71265014Y-97227719D02*
X70693586Y-97227719D01*
X70979300Y-97227719D02*
X70979300Y-96227719D01*
X70979300Y-96227719D02*
X70884062Y-96370576D01*
X70884062Y-96370576D02*
X70788824Y-96465814D01*
X70788824Y-96465814D02*
X70693586Y-96513433D01*
X108819961Y-87164057D02*
X108724723Y-87116438D01*
X108724723Y-87116438D02*
X108629485Y-87021200D01*
X108629485Y-87021200D02*
X108486628Y-86878342D01*
X108486628Y-86878342D02*
X108391390Y-86830723D01*
X108391390Y-86830723D02*
X108296152Y-86830723D01*
X108343771Y-87068819D02*
X108248533Y-87021200D01*
X108248533Y-87021200D02*
X108153295Y-86925961D01*
X108153295Y-86925961D02*
X108105676Y-86735485D01*
X108105676Y-86735485D02*
X108105676Y-86402152D01*
X108105676Y-86402152D02*
X108153295Y-86211676D01*
X108153295Y-86211676D02*
X108248533Y-86116438D01*
X108248533Y-86116438D02*
X108343771Y-86068819D01*
X108343771Y-86068819D02*
X108534247Y-86068819D01*
X108534247Y-86068819D02*
X108629485Y-86116438D01*
X108629485Y-86116438D02*
X108724723Y-86211676D01*
X108724723Y-86211676D02*
X108772342Y-86402152D01*
X108772342Y-86402152D02*
X108772342Y-86735485D01*
X108772342Y-86735485D02*
X108724723Y-86925961D01*
X108724723Y-86925961D02*
X108629485Y-87021200D01*
X108629485Y-87021200D02*
X108534247Y-87068819D01*
X108534247Y-87068819D02*
X108343771Y-87068819D01*
X109677104Y-86068819D02*
X109200914Y-86068819D01*
X109200914Y-86068819D02*
X109153295Y-86545009D01*
X109153295Y-86545009D02*
X109200914Y-86497390D01*
X109200914Y-86497390D02*
X109296152Y-86449771D01*
X109296152Y-86449771D02*
X109534247Y-86449771D01*
X109534247Y-86449771D02*
X109629485Y-86497390D01*
X109629485Y-86497390D02*
X109677104Y-86545009D01*
X109677104Y-86545009D02*
X109724723Y-86640247D01*
X109724723Y-86640247D02*
X109724723Y-86878342D01*
X109724723Y-86878342D02*
X109677104Y-86973580D01*
X109677104Y-86973580D02*
X109629485Y-87021200D01*
X109629485Y-87021200D02*
X109534247Y-87068819D01*
X109534247Y-87068819D02*
X109296152Y-87068819D01*
X109296152Y-87068819D02*
X109200914Y-87021200D01*
X109200914Y-87021200D02*
X109153295Y-86973580D01*
X70345467Y-70358800D02*
X70488324Y-70406419D01*
X70488324Y-70406419D02*
X70726419Y-70406419D01*
X70726419Y-70406419D02*
X70821657Y-70358800D01*
X70821657Y-70358800D02*
X70869276Y-70311180D01*
X70869276Y-70311180D02*
X70916895Y-70215942D01*
X70916895Y-70215942D02*
X70916895Y-70120704D01*
X70916895Y-70120704D02*
X70869276Y-70025466D01*
X70869276Y-70025466D02*
X70821657Y-69977847D01*
X70821657Y-69977847D02*
X70726419Y-69930228D01*
X70726419Y-69930228D02*
X70535943Y-69882609D01*
X70535943Y-69882609D02*
X70440705Y-69834990D01*
X70440705Y-69834990D02*
X70393086Y-69787371D01*
X70393086Y-69787371D02*
X70345467Y-69692133D01*
X70345467Y-69692133D02*
X70345467Y-69596895D01*
X70345467Y-69596895D02*
X70393086Y-69501657D01*
X70393086Y-69501657D02*
X70440705Y-69454038D01*
X70440705Y-69454038D02*
X70535943Y-69406419D01*
X70535943Y-69406419D02*
X70774038Y-69406419D01*
X70774038Y-69406419D02*
X70916895Y-69454038D01*
X71250229Y-69406419D02*
X71488324Y-70406419D01*
X71488324Y-70406419D02*
X71678800Y-69692133D01*
X71678800Y-69692133D02*
X71869276Y-70406419D01*
X71869276Y-70406419D02*
X72107372Y-69406419D01*
X72440705Y-69501657D02*
X72488324Y-69454038D01*
X72488324Y-69454038D02*
X72583562Y-69406419D01*
X72583562Y-69406419D02*
X72821657Y-69406419D01*
X72821657Y-69406419D02*
X72916895Y-69454038D01*
X72916895Y-69454038D02*
X72964514Y-69501657D01*
X72964514Y-69501657D02*
X73012133Y-69596895D01*
X73012133Y-69596895D02*
X73012133Y-69692133D01*
X73012133Y-69692133D02*
X72964514Y-69834990D01*
X72964514Y-69834990D02*
X72393086Y-70406419D01*
X72393086Y-70406419D02*
X73012133Y-70406419D01*
X77190519Y-96145757D02*
X76714328Y-96479090D01*
X77190519Y-96717185D02*
X76190519Y-96717185D01*
X76190519Y-96717185D02*
X76190519Y-96336233D01*
X76190519Y-96336233D02*
X76238138Y-96240995D01*
X76238138Y-96240995D02*
X76285757Y-96193376D01*
X76285757Y-96193376D02*
X76380995Y-96145757D01*
X76380995Y-96145757D02*
X76523852Y-96145757D01*
X76523852Y-96145757D02*
X76619090Y-96193376D01*
X76619090Y-96193376D02*
X76666709Y-96240995D01*
X76666709Y-96240995D02*
X76714328Y-96336233D01*
X76714328Y-96336233D02*
X76714328Y-96717185D01*
X76285757Y-95764804D02*
X76238138Y-95717185D01*
X76238138Y-95717185D02*
X76190519Y-95621947D01*
X76190519Y-95621947D02*
X76190519Y-95383852D01*
X76190519Y-95383852D02*
X76238138Y-95288614D01*
X76238138Y-95288614D02*
X76285757Y-95240995D01*
X76285757Y-95240995D02*
X76380995Y-95193376D01*
X76380995Y-95193376D02*
X76476233Y-95193376D01*
X76476233Y-95193376D02*
X76619090Y-95240995D01*
X76619090Y-95240995D02*
X77190519Y-95812423D01*
X77190519Y-95812423D02*
X77190519Y-95193376D01*
X77190519Y-94240995D02*
X77190519Y-94812423D01*
X77190519Y-94526709D02*
X76190519Y-94526709D01*
X76190519Y-94526709D02*
X76333376Y-94621947D01*
X76333376Y-94621947D02*
X76428614Y-94717185D01*
X76428614Y-94717185D02*
X76476233Y-94812423D01*
X103172419Y-99028357D02*
X102696228Y-99361690D01*
X103172419Y-99599785D02*
X102172419Y-99599785D01*
X102172419Y-99599785D02*
X102172419Y-99218833D01*
X102172419Y-99218833D02*
X102220038Y-99123595D01*
X102220038Y-99123595D02*
X102267657Y-99075976D01*
X102267657Y-99075976D02*
X102362895Y-99028357D01*
X102362895Y-99028357D02*
X102505752Y-99028357D01*
X102505752Y-99028357D02*
X102600990Y-99075976D01*
X102600990Y-99075976D02*
X102648609Y-99123595D01*
X102648609Y-99123595D02*
X102696228Y-99218833D01*
X102696228Y-99218833D02*
X102696228Y-99599785D01*
X103172419Y-98075976D02*
X103172419Y-98647404D01*
X103172419Y-98361690D02*
X102172419Y-98361690D01*
X102172419Y-98361690D02*
X102315276Y-98456928D01*
X102315276Y-98456928D02*
X102410514Y-98552166D01*
X102410514Y-98552166D02*
X102458133Y-98647404D01*
X102172419Y-97218833D02*
X102172419Y-97409309D01*
X102172419Y-97409309D02*
X102220038Y-97504547D01*
X102220038Y-97504547D02*
X102267657Y-97552166D01*
X102267657Y-97552166D02*
X102410514Y-97647404D01*
X102410514Y-97647404D02*
X102600990Y-97695023D01*
X102600990Y-97695023D02*
X102981942Y-97695023D01*
X102981942Y-97695023D02*
X103077180Y-97647404D01*
X103077180Y-97647404D02*
X103124800Y-97599785D01*
X103124800Y-97599785D02*
X103172419Y-97504547D01*
X103172419Y-97504547D02*
X103172419Y-97314071D01*
X103172419Y-97314071D02*
X103124800Y-97218833D01*
X103124800Y-97218833D02*
X103077180Y-97171214D01*
X103077180Y-97171214D02*
X102981942Y-97123595D01*
X102981942Y-97123595D02*
X102743847Y-97123595D01*
X102743847Y-97123595D02*
X102648609Y-97171214D01*
X102648609Y-97171214D02*
X102600990Y-97218833D01*
X102600990Y-97218833D02*
X102553371Y-97314071D01*
X102553371Y-97314071D02*
X102553371Y-97504547D01*
X102553371Y-97504547D02*
X102600990Y-97599785D01*
X102600990Y-97599785D02*
X102648609Y-97647404D01*
X102648609Y-97647404D02*
X102743847Y-97695023D01*
X110882133Y-83498719D02*
X110548800Y-83022528D01*
X110310705Y-83498719D02*
X110310705Y-82498719D01*
X110310705Y-82498719D02*
X110691657Y-82498719D01*
X110691657Y-82498719D02*
X110786895Y-82546338D01*
X110786895Y-82546338D02*
X110834514Y-82593957D01*
X110834514Y-82593957D02*
X110882133Y-82689195D01*
X110882133Y-82689195D02*
X110882133Y-82832052D01*
X110882133Y-82832052D02*
X110834514Y-82927290D01*
X110834514Y-82927290D02*
X110786895Y-82974909D01*
X110786895Y-82974909D02*
X110691657Y-83022528D01*
X110691657Y-83022528D02*
X110310705Y-83022528D01*
X111358324Y-83498719D02*
X111548800Y-83498719D01*
X111548800Y-83498719D02*
X111644038Y-83451100D01*
X111644038Y-83451100D02*
X111691657Y-83403480D01*
X111691657Y-83403480D02*
X111786895Y-83260623D01*
X111786895Y-83260623D02*
X111834514Y-83070147D01*
X111834514Y-83070147D02*
X111834514Y-82689195D01*
X111834514Y-82689195D02*
X111786895Y-82593957D01*
X111786895Y-82593957D02*
X111739276Y-82546338D01*
X111739276Y-82546338D02*
X111644038Y-82498719D01*
X111644038Y-82498719D02*
X111453562Y-82498719D01*
X111453562Y-82498719D02*
X111358324Y-82546338D01*
X111358324Y-82546338D02*
X111310705Y-82593957D01*
X111310705Y-82593957D02*
X111263086Y-82689195D01*
X111263086Y-82689195D02*
X111263086Y-82927290D01*
X111263086Y-82927290D02*
X111310705Y-83022528D01*
X111310705Y-83022528D02*
X111358324Y-83070147D01*
X111358324Y-83070147D02*
X111453562Y-83117766D01*
X111453562Y-83117766D02*
X111644038Y-83117766D01*
X111644038Y-83117766D02*
X111739276Y-83070147D01*
X111739276Y-83070147D02*
X111786895Y-83022528D01*
X111786895Y-83022528D02*
X111834514Y-82927290D01*
X80718819Y-76366666D02*
X80242628Y-76699999D01*
X80718819Y-76938094D02*
X79718819Y-76938094D01*
X79718819Y-76938094D02*
X79718819Y-76557142D01*
X79718819Y-76557142D02*
X79766438Y-76461904D01*
X79766438Y-76461904D02*
X79814057Y-76414285D01*
X79814057Y-76414285D02*
X79909295Y-76366666D01*
X79909295Y-76366666D02*
X80052152Y-76366666D01*
X80052152Y-76366666D02*
X80147390Y-76414285D01*
X80147390Y-76414285D02*
X80195009Y-76461904D01*
X80195009Y-76461904D02*
X80242628Y-76557142D01*
X80242628Y-76557142D02*
X80242628Y-76938094D01*
X80718819Y-75414285D02*
X80718819Y-75985713D01*
X80718819Y-75699999D02*
X79718819Y-75699999D01*
X79718819Y-75699999D02*
X79861676Y-75795237D01*
X79861676Y-75795237D02*
X79956914Y-75890475D01*
X79956914Y-75890475D02*
X80004533Y-75985713D01*
X103223219Y-77557666D02*
X102747028Y-77890999D01*
X103223219Y-78129094D02*
X102223219Y-78129094D01*
X102223219Y-78129094D02*
X102223219Y-77748142D01*
X102223219Y-77748142D02*
X102270838Y-77652904D01*
X102270838Y-77652904D02*
X102318457Y-77605285D01*
X102318457Y-77605285D02*
X102413695Y-77557666D01*
X102413695Y-77557666D02*
X102556552Y-77557666D01*
X102556552Y-77557666D02*
X102651790Y-77605285D01*
X102651790Y-77605285D02*
X102699409Y-77652904D01*
X102699409Y-77652904D02*
X102747028Y-77748142D01*
X102747028Y-77748142D02*
X102747028Y-78129094D01*
X102556552Y-76700523D02*
X103223219Y-76700523D01*
X102175600Y-76938618D02*
X102889885Y-77176713D01*
X102889885Y-77176713D02*
X102889885Y-76557666D01*
X77016780Y-77941466D02*
X77064400Y-77989085D01*
X77064400Y-77989085D02*
X77112019Y-78131942D01*
X77112019Y-78131942D02*
X77112019Y-78227180D01*
X77112019Y-78227180D02*
X77064400Y-78370037D01*
X77064400Y-78370037D02*
X76969161Y-78465275D01*
X76969161Y-78465275D02*
X76873923Y-78512894D01*
X76873923Y-78512894D02*
X76683447Y-78560513D01*
X76683447Y-78560513D02*
X76540590Y-78560513D01*
X76540590Y-78560513D02*
X76350114Y-78512894D01*
X76350114Y-78512894D02*
X76254876Y-78465275D01*
X76254876Y-78465275D02*
X76159638Y-78370037D01*
X76159638Y-78370037D02*
X76112019Y-78227180D01*
X76112019Y-78227180D02*
X76112019Y-78131942D01*
X76112019Y-78131942D02*
X76159638Y-77989085D01*
X76159638Y-77989085D02*
X76207257Y-77941466D01*
X76112019Y-77608132D02*
X76112019Y-76989085D01*
X76112019Y-76989085D02*
X76492971Y-77322418D01*
X76492971Y-77322418D02*
X76492971Y-77179561D01*
X76492971Y-77179561D02*
X76540590Y-77084323D01*
X76540590Y-77084323D02*
X76588209Y-77036704D01*
X76588209Y-77036704D02*
X76683447Y-76989085D01*
X76683447Y-76989085D02*
X76921542Y-76989085D01*
X76921542Y-76989085D02*
X77016780Y-77036704D01*
X77016780Y-77036704D02*
X77064400Y-77084323D01*
X77064400Y-77084323D02*
X77112019Y-77179561D01*
X77112019Y-77179561D02*
X77112019Y-77465275D01*
X77112019Y-77465275D02*
X77064400Y-77560513D01*
X77064400Y-77560513D02*
X77016780Y-77608132D01*
X73562380Y-77941466D02*
X73610000Y-77989085D01*
X73610000Y-77989085D02*
X73657619Y-78131942D01*
X73657619Y-78131942D02*
X73657619Y-78227180D01*
X73657619Y-78227180D02*
X73610000Y-78370037D01*
X73610000Y-78370037D02*
X73514761Y-78465275D01*
X73514761Y-78465275D02*
X73419523Y-78512894D01*
X73419523Y-78512894D02*
X73229047Y-78560513D01*
X73229047Y-78560513D02*
X73086190Y-78560513D01*
X73086190Y-78560513D02*
X72895714Y-78512894D01*
X72895714Y-78512894D02*
X72800476Y-78465275D01*
X72800476Y-78465275D02*
X72705238Y-78370037D01*
X72705238Y-78370037D02*
X72657619Y-78227180D01*
X72657619Y-78227180D02*
X72657619Y-78131942D01*
X72657619Y-78131942D02*
X72705238Y-77989085D01*
X72705238Y-77989085D02*
X72752857Y-77941466D01*
X72990952Y-77084323D02*
X73657619Y-77084323D01*
X72610000Y-77322418D02*
X73324285Y-77560513D01*
X73324285Y-77560513D02*
X73324285Y-76941466D01*
X66514742Y-81480819D02*
X66181409Y-81004628D01*
X65943314Y-81480819D02*
X65943314Y-80480819D01*
X65943314Y-80480819D02*
X66324266Y-80480819D01*
X66324266Y-80480819D02*
X66419504Y-80528438D01*
X66419504Y-80528438D02*
X66467123Y-80576057D01*
X66467123Y-80576057D02*
X66514742Y-80671295D01*
X66514742Y-80671295D02*
X66514742Y-80814152D01*
X66514742Y-80814152D02*
X66467123Y-80909390D01*
X66467123Y-80909390D02*
X66419504Y-80957009D01*
X66419504Y-80957009D02*
X66324266Y-81004628D01*
X66324266Y-81004628D02*
X65943314Y-81004628D01*
X66895695Y-80576057D02*
X66943314Y-80528438D01*
X66943314Y-80528438D02*
X67038552Y-80480819D01*
X67038552Y-80480819D02*
X67276647Y-80480819D01*
X67276647Y-80480819D02*
X67371885Y-80528438D01*
X67371885Y-80528438D02*
X67419504Y-80576057D01*
X67419504Y-80576057D02*
X67467123Y-80671295D01*
X67467123Y-80671295D02*
X67467123Y-80766533D01*
X67467123Y-80766533D02*
X67419504Y-80909390D01*
X67419504Y-80909390D02*
X66848076Y-81480819D01*
X66848076Y-81480819D02*
X67467123Y-81480819D01*
X68324266Y-80814152D02*
X68324266Y-81480819D01*
X68086171Y-80433200D02*
X67848076Y-81147485D01*
X67848076Y-81147485D02*
X68467123Y-81147485D01*
X108819961Y-90539457D02*
X108724723Y-90491838D01*
X108724723Y-90491838D02*
X108629485Y-90396600D01*
X108629485Y-90396600D02*
X108486628Y-90253742D01*
X108486628Y-90253742D02*
X108391390Y-90206123D01*
X108391390Y-90206123D02*
X108296152Y-90206123D01*
X108343771Y-90444219D02*
X108248533Y-90396600D01*
X108248533Y-90396600D02*
X108153295Y-90301361D01*
X108153295Y-90301361D02*
X108105676Y-90110885D01*
X108105676Y-90110885D02*
X108105676Y-89777552D01*
X108105676Y-89777552D02*
X108153295Y-89587076D01*
X108153295Y-89587076D02*
X108248533Y-89491838D01*
X108248533Y-89491838D02*
X108343771Y-89444219D01*
X108343771Y-89444219D02*
X108534247Y-89444219D01*
X108534247Y-89444219D02*
X108629485Y-89491838D01*
X108629485Y-89491838D02*
X108724723Y-89587076D01*
X108724723Y-89587076D02*
X108772342Y-89777552D01*
X108772342Y-89777552D02*
X108772342Y-90110885D01*
X108772342Y-90110885D02*
X108724723Y-90301361D01*
X108724723Y-90301361D02*
X108629485Y-90396600D01*
X108629485Y-90396600D02*
X108534247Y-90444219D01*
X108534247Y-90444219D02*
X108343771Y-90444219D01*
X109629485Y-89444219D02*
X109439009Y-89444219D01*
X109439009Y-89444219D02*
X109343771Y-89491838D01*
X109343771Y-89491838D02*
X109296152Y-89539457D01*
X109296152Y-89539457D02*
X109200914Y-89682314D01*
X109200914Y-89682314D02*
X109153295Y-89872790D01*
X109153295Y-89872790D02*
X109153295Y-90253742D01*
X109153295Y-90253742D02*
X109200914Y-90348980D01*
X109200914Y-90348980D02*
X109248533Y-90396600D01*
X109248533Y-90396600D02*
X109343771Y-90444219D01*
X109343771Y-90444219D02*
X109534247Y-90444219D01*
X109534247Y-90444219D02*
X109629485Y-90396600D01*
X109629485Y-90396600D02*
X109677104Y-90348980D01*
X109677104Y-90348980D02*
X109724723Y-90253742D01*
X109724723Y-90253742D02*
X109724723Y-90015647D01*
X109724723Y-90015647D02*
X109677104Y-89920409D01*
X109677104Y-89920409D02*
X109629485Y-89872790D01*
X109629485Y-89872790D02*
X109534247Y-89825171D01*
X109534247Y-89825171D02*
X109343771Y-89825171D01*
X109343771Y-89825171D02*
X109248533Y-89872790D01*
X109248533Y-89872790D02*
X109200914Y-89920409D01*
X109200914Y-89920409D02*
X109153295Y-90015647D01*
X103223219Y-84582166D02*
X102747028Y-84915499D01*
X103223219Y-85153594D02*
X102223219Y-85153594D01*
X102223219Y-85153594D02*
X102223219Y-84772642D01*
X102223219Y-84772642D02*
X102270838Y-84677404D01*
X102270838Y-84677404D02*
X102318457Y-84629785D01*
X102318457Y-84629785D02*
X102413695Y-84582166D01*
X102413695Y-84582166D02*
X102556552Y-84582166D01*
X102556552Y-84582166D02*
X102651790Y-84629785D01*
X102651790Y-84629785D02*
X102699409Y-84677404D01*
X102699409Y-84677404D02*
X102747028Y-84772642D01*
X102747028Y-84772642D02*
X102747028Y-85153594D01*
X102651790Y-84010737D02*
X102604171Y-84105975D01*
X102604171Y-84105975D02*
X102556552Y-84153594D01*
X102556552Y-84153594D02*
X102461314Y-84201213D01*
X102461314Y-84201213D02*
X102413695Y-84201213D01*
X102413695Y-84201213D02*
X102318457Y-84153594D01*
X102318457Y-84153594D02*
X102270838Y-84105975D01*
X102270838Y-84105975D02*
X102223219Y-84010737D01*
X102223219Y-84010737D02*
X102223219Y-83820261D01*
X102223219Y-83820261D02*
X102270838Y-83725023D01*
X102270838Y-83725023D02*
X102318457Y-83677404D01*
X102318457Y-83677404D02*
X102413695Y-83629785D01*
X102413695Y-83629785D02*
X102461314Y-83629785D01*
X102461314Y-83629785D02*
X102556552Y-83677404D01*
X102556552Y-83677404D02*
X102604171Y-83725023D01*
X102604171Y-83725023D02*
X102651790Y-83820261D01*
X102651790Y-83820261D02*
X102651790Y-84010737D01*
X102651790Y-84010737D02*
X102699409Y-84105975D01*
X102699409Y-84105975D02*
X102747028Y-84153594D01*
X102747028Y-84153594D02*
X102842266Y-84201213D01*
X102842266Y-84201213D02*
X103032742Y-84201213D01*
X103032742Y-84201213D02*
X103127980Y-84153594D01*
X103127980Y-84153594D02*
X103175600Y-84105975D01*
X103175600Y-84105975D02*
X103223219Y-84010737D01*
X103223219Y-84010737D02*
X103223219Y-83820261D01*
X103223219Y-83820261D02*
X103175600Y-83725023D01*
X103175600Y-83725023D02*
X103127980Y-83677404D01*
X103127980Y-83677404D02*
X103032742Y-83629785D01*
X103032742Y-83629785D02*
X102842266Y-83629785D01*
X102842266Y-83629785D02*
X102747028Y-83677404D01*
X102747028Y-83677404D02*
X102699409Y-83725023D01*
X102699409Y-83725023D02*
X102651790Y-83820261D01*
X78997980Y-76353666D02*
X79045600Y-76401285D01*
X79045600Y-76401285D02*
X79093219Y-76544142D01*
X79093219Y-76544142D02*
X79093219Y-76639380D01*
X79093219Y-76639380D02*
X79045600Y-76782237D01*
X79045600Y-76782237D02*
X78950361Y-76877475D01*
X78950361Y-76877475D02*
X78855123Y-76925094D01*
X78855123Y-76925094D02*
X78664647Y-76972713D01*
X78664647Y-76972713D02*
X78521790Y-76972713D01*
X78521790Y-76972713D02*
X78331314Y-76925094D01*
X78331314Y-76925094D02*
X78236076Y-76877475D01*
X78236076Y-76877475D02*
X78140838Y-76782237D01*
X78140838Y-76782237D02*
X78093219Y-76639380D01*
X78093219Y-76639380D02*
X78093219Y-76544142D01*
X78093219Y-76544142D02*
X78140838Y-76401285D01*
X78140838Y-76401285D02*
X78188457Y-76353666D01*
X79093219Y-75401285D02*
X79093219Y-75972713D01*
X79093219Y-75686999D02*
X78093219Y-75686999D01*
X78093219Y-75686999D02*
X78236076Y-75782237D01*
X78236076Y-75782237D02*
X78331314Y-75877475D01*
X78331314Y-75877475D02*
X78378933Y-75972713D01*
X103172419Y-95610657D02*
X102696228Y-95943990D01*
X103172419Y-96182085D02*
X102172419Y-96182085D01*
X102172419Y-96182085D02*
X102172419Y-95801133D01*
X102172419Y-95801133D02*
X102220038Y-95705895D01*
X102220038Y-95705895D02*
X102267657Y-95658276D01*
X102267657Y-95658276D02*
X102362895Y-95610657D01*
X102362895Y-95610657D02*
X102505752Y-95610657D01*
X102505752Y-95610657D02*
X102600990Y-95658276D01*
X102600990Y-95658276D02*
X102648609Y-95705895D01*
X102648609Y-95705895D02*
X102696228Y-95801133D01*
X102696228Y-95801133D02*
X102696228Y-96182085D01*
X103172419Y-94658276D02*
X103172419Y-95229704D01*
X103172419Y-94943990D02*
X102172419Y-94943990D01*
X102172419Y-94943990D02*
X102315276Y-95039228D01*
X102315276Y-95039228D02*
X102410514Y-95134466D01*
X102410514Y-95134466D02*
X102458133Y-95229704D01*
X102505752Y-93801133D02*
X103172419Y-93801133D01*
X102124800Y-94039228D02*
X102839085Y-94277323D01*
X102839085Y-94277323D02*
X102839085Y-93658276D01*
X108769161Y-72925957D02*
X108673923Y-72878338D01*
X108673923Y-72878338D02*
X108578685Y-72783100D01*
X108578685Y-72783100D02*
X108435828Y-72640242D01*
X108435828Y-72640242D02*
X108340590Y-72592623D01*
X108340590Y-72592623D02*
X108245352Y-72592623D01*
X108292971Y-72830719D02*
X108197733Y-72783100D01*
X108197733Y-72783100D02*
X108102495Y-72687861D01*
X108102495Y-72687861D02*
X108054876Y-72497385D01*
X108054876Y-72497385D02*
X108054876Y-72164052D01*
X108054876Y-72164052D02*
X108102495Y-71973576D01*
X108102495Y-71973576D02*
X108197733Y-71878338D01*
X108197733Y-71878338D02*
X108292971Y-71830719D01*
X108292971Y-71830719D02*
X108483447Y-71830719D01*
X108483447Y-71830719D02*
X108578685Y-71878338D01*
X108578685Y-71878338D02*
X108673923Y-71973576D01*
X108673923Y-71973576D02*
X108721542Y-72164052D01*
X108721542Y-72164052D02*
X108721542Y-72497385D01*
X108721542Y-72497385D02*
X108673923Y-72687861D01*
X108673923Y-72687861D02*
X108578685Y-72783100D01*
X108578685Y-72783100D02*
X108483447Y-72830719D01*
X108483447Y-72830719D02*
X108292971Y-72830719D01*
X109673923Y-72830719D02*
X109102495Y-72830719D01*
X109388209Y-72830719D02*
X109388209Y-71830719D01*
X109388209Y-71830719D02*
X109292971Y-71973576D01*
X109292971Y-71973576D02*
X109197733Y-72068814D01*
X109197733Y-72068814D02*
X109102495Y-72116433D01*
X103223219Y-92119557D02*
X102747028Y-92452890D01*
X103223219Y-92690985D02*
X102223219Y-92690985D01*
X102223219Y-92690985D02*
X102223219Y-92310033D01*
X102223219Y-92310033D02*
X102270838Y-92214795D01*
X102270838Y-92214795D02*
X102318457Y-92167176D01*
X102318457Y-92167176D02*
X102413695Y-92119557D01*
X102413695Y-92119557D02*
X102556552Y-92119557D01*
X102556552Y-92119557D02*
X102651790Y-92167176D01*
X102651790Y-92167176D02*
X102699409Y-92214795D01*
X102699409Y-92214795D02*
X102747028Y-92310033D01*
X102747028Y-92310033D02*
X102747028Y-92690985D01*
X103223219Y-91167176D02*
X103223219Y-91738604D01*
X103223219Y-91452890D02*
X102223219Y-91452890D01*
X102223219Y-91452890D02*
X102366076Y-91548128D01*
X102366076Y-91548128D02*
X102461314Y-91643366D01*
X102461314Y-91643366D02*
X102508933Y-91738604D01*
X102318457Y-90786223D02*
X102270838Y-90738604D01*
X102270838Y-90738604D02*
X102223219Y-90643366D01*
X102223219Y-90643366D02*
X102223219Y-90405271D01*
X102223219Y-90405271D02*
X102270838Y-90310033D01*
X102270838Y-90310033D02*
X102318457Y-90262414D01*
X102318457Y-90262414D02*
X102413695Y-90214795D01*
X102413695Y-90214795D02*
X102508933Y-90214795D01*
X102508933Y-90214795D02*
X102651790Y-90262414D01*
X102651790Y-90262414D02*
X103223219Y-90833842D01*
X103223219Y-90833842D02*
X103223219Y-90214795D01*
X94542780Y-93573066D02*
X94590400Y-93620685D01*
X94590400Y-93620685D02*
X94638019Y-93763542D01*
X94638019Y-93763542D02*
X94638019Y-93858780D01*
X94638019Y-93858780D02*
X94590400Y-94001637D01*
X94590400Y-94001637D02*
X94495161Y-94096875D01*
X94495161Y-94096875D02*
X94399923Y-94144494D01*
X94399923Y-94144494D02*
X94209447Y-94192113D01*
X94209447Y-94192113D02*
X94066590Y-94192113D01*
X94066590Y-94192113D02*
X93876114Y-94144494D01*
X93876114Y-94144494D02*
X93780876Y-94096875D01*
X93780876Y-94096875D02*
X93685638Y-94001637D01*
X93685638Y-94001637D02*
X93638019Y-93858780D01*
X93638019Y-93858780D02*
X93638019Y-93763542D01*
X93638019Y-93763542D02*
X93685638Y-93620685D01*
X93685638Y-93620685D02*
X93733257Y-93573066D01*
X93638019Y-92668304D02*
X93638019Y-93144494D01*
X93638019Y-93144494D02*
X94114209Y-93192113D01*
X94114209Y-93192113D02*
X94066590Y-93144494D01*
X94066590Y-93144494D02*
X94018971Y-93049256D01*
X94018971Y-93049256D02*
X94018971Y-92811161D01*
X94018971Y-92811161D02*
X94066590Y-92715923D01*
X94066590Y-92715923D02*
X94114209Y-92668304D01*
X94114209Y-92668304D02*
X94209447Y-92620685D01*
X94209447Y-92620685D02*
X94447542Y-92620685D01*
X94447542Y-92620685D02*
X94542780Y-92668304D01*
X94542780Y-92668304D02*
X94590400Y-92715923D01*
X94590400Y-92715923D02*
X94638019Y-92811161D01*
X94638019Y-92811161D02*
X94638019Y-93049256D01*
X94638019Y-93049256D02*
X94590400Y-93144494D01*
X94590400Y-93144494D02*
X94542780Y-93192113D01*
X92845919Y-93642857D02*
X92369728Y-93976190D01*
X92845919Y-94214285D02*
X91845919Y-94214285D01*
X91845919Y-94214285D02*
X91845919Y-93833333D01*
X91845919Y-93833333D02*
X91893538Y-93738095D01*
X91893538Y-93738095D02*
X91941157Y-93690476D01*
X91941157Y-93690476D02*
X92036395Y-93642857D01*
X92036395Y-93642857D02*
X92179252Y-93642857D01*
X92179252Y-93642857D02*
X92274490Y-93690476D01*
X92274490Y-93690476D02*
X92322109Y-93738095D01*
X92322109Y-93738095D02*
X92369728Y-93833333D01*
X92369728Y-93833333D02*
X92369728Y-94214285D01*
X91941157Y-93261904D02*
X91893538Y-93214285D01*
X91893538Y-93214285D02*
X91845919Y-93119047D01*
X91845919Y-93119047D02*
X91845919Y-92880952D01*
X91845919Y-92880952D02*
X91893538Y-92785714D01*
X91893538Y-92785714D02*
X91941157Y-92738095D01*
X91941157Y-92738095D02*
X92036395Y-92690476D01*
X92036395Y-92690476D02*
X92131633Y-92690476D01*
X92131633Y-92690476D02*
X92274490Y-92738095D01*
X92274490Y-92738095D02*
X92845919Y-93309523D01*
X92845919Y-93309523D02*
X92845919Y-92690476D01*
X92274490Y-92119047D02*
X92226871Y-92214285D01*
X92226871Y-92214285D02*
X92179252Y-92261904D01*
X92179252Y-92261904D02*
X92084014Y-92309523D01*
X92084014Y-92309523D02*
X92036395Y-92309523D01*
X92036395Y-92309523D02*
X91941157Y-92261904D01*
X91941157Y-92261904D02*
X91893538Y-92214285D01*
X91893538Y-92214285D02*
X91845919Y-92119047D01*
X91845919Y-92119047D02*
X91845919Y-91928571D01*
X91845919Y-91928571D02*
X91893538Y-91833333D01*
X91893538Y-91833333D02*
X91941157Y-91785714D01*
X91941157Y-91785714D02*
X92036395Y-91738095D01*
X92036395Y-91738095D02*
X92084014Y-91738095D01*
X92084014Y-91738095D02*
X92179252Y-91785714D01*
X92179252Y-91785714D02*
X92226871Y-91833333D01*
X92226871Y-91833333D02*
X92274490Y-91928571D01*
X92274490Y-91928571D02*
X92274490Y-92119047D01*
X92274490Y-92119047D02*
X92322109Y-92214285D01*
X92322109Y-92214285D02*
X92369728Y-92261904D01*
X92369728Y-92261904D02*
X92464966Y-92309523D01*
X92464966Y-92309523D02*
X92655442Y-92309523D01*
X92655442Y-92309523D02*
X92750680Y-92261904D01*
X92750680Y-92261904D02*
X92798300Y-92214285D01*
X92798300Y-92214285D02*
X92845919Y-92119047D01*
X92845919Y-92119047D02*
X92845919Y-91928571D01*
X92845919Y-91928571D02*
X92798300Y-91833333D01*
X92798300Y-91833333D02*
X92750680Y-91785714D01*
X92750680Y-91785714D02*
X92655442Y-91738095D01*
X92655442Y-91738095D02*
X92464966Y-91738095D01*
X92464966Y-91738095D02*
X92369728Y-91785714D01*
X92369728Y-91785714D02*
X92322109Y-91833333D01*
X92322109Y-91833333D02*
X92274490Y-91928571D01*
X110932933Y-72830719D02*
X110599600Y-72354528D01*
X110361505Y-72830719D02*
X110361505Y-71830719D01*
X110361505Y-71830719D02*
X110742457Y-71830719D01*
X110742457Y-71830719D02*
X110837695Y-71878338D01*
X110837695Y-71878338D02*
X110885314Y-71925957D01*
X110885314Y-71925957D02*
X110932933Y-72021195D01*
X110932933Y-72021195D02*
X110932933Y-72164052D01*
X110932933Y-72164052D02*
X110885314Y-72259290D01*
X110885314Y-72259290D02*
X110837695Y-72306909D01*
X110837695Y-72306909D02*
X110742457Y-72354528D01*
X110742457Y-72354528D02*
X110361505Y-72354528D01*
X111313886Y-71925957D02*
X111361505Y-71878338D01*
X111361505Y-71878338D02*
X111456743Y-71830719D01*
X111456743Y-71830719D02*
X111694838Y-71830719D01*
X111694838Y-71830719D02*
X111790076Y-71878338D01*
X111790076Y-71878338D02*
X111837695Y-71925957D01*
X111837695Y-71925957D02*
X111885314Y-72021195D01*
X111885314Y-72021195D02*
X111885314Y-72116433D01*
X111885314Y-72116433D02*
X111837695Y-72259290D01*
X111837695Y-72259290D02*
X111266267Y-72830719D01*
X111266267Y-72830719D02*
X111885314Y-72830719D01*
X66565542Y-84478019D02*
X66232209Y-84001828D01*
X65994114Y-84478019D02*
X65994114Y-83478019D01*
X65994114Y-83478019D02*
X66375066Y-83478019D01*
X66375066Y-83478019D02*
X66470304Y-83525638D01*
X66470304Y-83525638D02*
X66517923Y-83573257D01*
X66517923Y-83573257D02*
X66565542Y-83668495D01*
X66565542Y-83668495D02*
X66565542Y-83811352D01*
X66565542Y-83811352D02*
X66517923Y-83906590D01*
X66517923Y-83906590D02*
X66470304Y-83954209D01*
X66470304Y-83954209D02*
X66375066Y-84001828D01*
X66375066Y-84001828D02*
X65994114Y-84001828D01*
X66946495Y-83573257D02*
X66994114Y-83525638D01*
X66994114Y-83525638D02*
X67089352Y-83478019D01*
X67089352Y-83478019D02*
X67327447Y-83478019D01*
X67327447Y-83478019D02*
X67422685Y-83525638D01*
X67422685Y-83525638D02*
X67470304Y-83573257D01*
X67470304Y-83573257D02*
X67517923Y-83668495D01*
X67517923Y-83668495D02*
X67517923Y-83763733D01*
X67517923Y-83763733D02*
X67470304Y-83906590D01*
X67470304Y-83906590D02*
X66898876Y-84478019D01*
X66898876Y-84478019D02*
X67517923Y-84478019D01*
X68375066Y-83478019D02*
X68184590Y-83478019D01*
X68184590Y-83478019D02*
X68089352Y-83525638D01*
X68089352Y-83525638D02*
X68041733Y-83573257D01*
X68041733Y-83573257D02*
X67946495Y-83716114D01*
X67946495Y-83716114D02*
X67898876Y-83906590D01*
X67898876Y-83906590D02*
X67898876Y-84287542D01*
X67898876Y-84287542D02*
X67946495Y-84382780D01*
X67946495Y-84382780D02*
X67994114Y-84430400D01*
X67994114Y-84430400D02*
X68089352Y-84478019D01*
X68089352Y-84478019D02*
X68279828Y-84478019D01*
X68279828Y-84478019D02*
X68375066Y-84430400D01*
X68375066Y-84430400D02*
X68422685Y-84382780D01*
X68422685Y-84382780D02*
X68470304Y-84287542D01*
X68470304Y-84287542D02*
X68470304Y-84049447D01*
X68470304Y-84049447D02*
X68422685Y-83954209D01*
X68422685Y-83954209D02*
X68375066Y-83906590D01*
X68375066Y-83906590D02*
X68279828Y-83858971D01*
X68279828Y-83858971D02*
X68089352Y-83858971D01*
X68089352Y-83858971D02*
X67994114Y-83906590D01*
X67994114Y-83906590D02*
X67946495Y-83954209D01*
X67946495Y-83954209D02*
X67898876Y-84049447D01*
X73683905Y-84782819D02*
X73683905Y-83782819D01*
X73683905Y-83782819D02*
X73922000Y-83782819D01*
X73922000Y-83782819D02*
X74064857Y-83830438D01*
X74064857Y-83830438D02*
X74160095Y-83925676D01*
X74160095Y-83925676D02*
X74207714Y-84020914D01*
X74207714Y-84020914D02*
X74255333Y-84211390D01*
X74255333Y-84211390D02*
X74255333Y-84354247D01*
X74255333Y-84354247D02*
X74207714Y-84544723D01*
X74207714Y-84544723D02*
X74160095Y-84639961D01*
X74160095Y-84639961D02*
X74064857Y-84735200D01*
X74064857Y-84735200D02*
X73922000Y-84782819D01*
X73922000Y-84782819D02*
X73683905Y-84782819D01*
X75207714Y-84782819D02*
X74636286Y-84782819D01*
X74922000Y-84782819D02*
X74922000Y-83782819D01*
X74922000Y-83782819D02*
X74826762Y-83925676D01*
X74826762Y-83925676D02*
X74731524Y-84020914D01*
X74731524Y-84020914D02*
X74636286Y-84068533D01*
X79182933Y-70361980D02*
X79135314Y-70409600D01*
X79135314Y-70409600D02*
X78992457Y-70457219D01*
X78992457Y-70457219D02*
X78897219Y-70457219D01*
X78897219Y-70457219D02*
X78754362Y-70409600D01*
X78754362Y-70409600D02*
X78659124Y-70314361D01*
X78659124Y-70314361D02*
X78611505Y-70219123D01*
X78611505Y-70219123D02*
X78563886Y-70028647D01*
X78563886Y-70028647D02*
X78563886Y-69885790D01*
X78563886Y-69885790D02*
X78611505Y-69695314D01*
X78611505Y-69695314D02*
X78659124Y-69600076D01*
X78659124Y-69600076D02*
X78754362Y-69504838D01*
X78754362Y-69504838D02*
X78897219Y-69457219D01*
X78897219Y-69457219D02*
X78992457Y-69457219D01*
X78992457Y-69457219D02*
X79135314Y-69504838D01*
X79135314Y-69504838D02*
X79182933Y-69552457D01*
X79563886Y-69552457D02*
X79611505Y-69504838D01*
X79611505Y-69504838D02*
X79706743Y-69457219D01*
X79706743Y-69457219D02*
X79944838Y-69457219D01*
X79944838Y-69457219D02*
X80040076Y-69504838D01*
X80040076Y-69504838D02*
X80087695Y-69552457D01*
X80087695Y-69552457D02*
X80135314Y-69647695D01*
X80135314Y-69647695D02*
X80135314Y-69742933D01*
X80135314Y-69742933D02*
X80087695Y-69885790D01*
X80087695Y-69885790D02*
X79516267Y-70457219D01*
X79516267Y-70457219D02*
X80135314Y-70457219D01*
X108819961Y-101156657D02*
X108724723Y-101109038D01*
X108724723Y-101109038D02*
X108629485Y-101013800D01*
X108629485Y-101013800D02*
X108486628Y-100870942D01*
X108486628Y-100870942D02*
X108391390Y-100823323D01*
X108391390Y-100823323D02*
X108296152Y-100823323D01*
X108343771Y-101061419D02*
X108248533Y-101013800D01*
X108248533Y-101013800D02*
X108153295Y-100918561D01*
X108153295Y-100918561D02*
X108105676Y-100728085D01*
X108105676Y-100728085D02*
X108105676Y-100394752D01*
X108105676Y-100394752D02*
X108153295Y-100204276D01*
X108153295Y-100204276D02*
X108248533Y-100109038D01*
X108248533Y-100109038D02*
X108343771Y-100061419D01*
X108343771Y-100061419D02*
X108534247Y-100061419D01*
X108534247Y-100061419D02*
X108629485Y-100109038D01*
X108629485Y-100109038D02*
X108724723Y-100204276D01*
X108724723Y-100204276D02*
X108772342Y-100394752D01*
X108772342Y-100394752D02*
X108772342Y-100728085D01*
X108772342Y-100728085D02*
X108724723Y-100918561D01*
X108724723Y-100918561D02*
X108629485Y-101013800D01*
X108629485Y-101013800D02*
X108534247Y-101061419D01*
X108534247Y-101061419D02*
X108343771Y-101061419D01*
X109248533Y-101061419D02*
X109439009Y-101061419D01*
X109439009Y-101061419D02*
X109534247Y-101013800D01*
X109534247Y-101013800D02*
X109581866Y-100966180D01*
X109581866Y-100966180D02*
X109677104Y-100823323D01*
X109677104Y-100823323D02*
X109724723Y-100632847D01*
X109724723Y-100632847D02*
X109724723Y-100251895D01*
X109724723Y-100251895D02*
X109677104Y-100156657D01*
X109677104Y-100156657D02*
X109629485Y-100109038D01*
X109629485Y-100109038D02*
X109534247Y-100061419D01*
X109534247Y-100061419D02*
X109343771Y-100061419D01*
X109343771Y-100061419D02*
X109248533Y-100109038D01*
X109248533Y-100109038D02*
X109200914Y-100156657D01*
X109200914Y-100156657D02*
X109153295Y-100251895D01*
X109153295Y-100251895D02*
X109153295Y-100489990D01*
X109153295Y-100489990D02*
X109200914Y-100585228D01*
X109200914Y-100585228D02*
X109248533Y-100632847D01*
X109248533Y-100632847D02*
X109343771Y-100680466D01*
X109343771Y-100680466D02*
X109534247Y-100680466D01*
X109534247Y-100680466D02*
X109629485Y-100632847D01*
X109629485Y-100632847D02*
X109677104Y-100585228D01*
X109677104Y-100585228D02*
X109724723Y-100489990D01*
X110812342Y-87018019D02*
X110479009Y-86541828D01*
X110240914Y-87018019D02*
X110240914Y-86018019D01*
X110240914Y-86018019D02*
X110621866Y-86018019D01*
X110621866Y-86018019D02*
X110717104Y-86065638D01*
X110717104Y-86065638D02*
X110764723Y-86113257D01*
X110764723Y-86113257D02*
X110812342Y-86208495D01*
X110812342Y-86208495D02*
X110812342Y-86351352D01*
X110812342Y-86351352D02*
X110764723Y-86446590D01*
X110764723Y-86446590D02*
X110717104Y-86494209D01*
X110717104Y-86494209D02*
X110621866Y-86541828D01*
X110621866Y-86541828D02*
X110240914Y-86541828D01*
X111764723Y-87018019D02*
X111193295Y-87018019D01*
X111479009Y-87018019D02*
X111479009Y-86018019D01*
X111479009Y-86018019D02*
X111383771Y-86160876D01*
X111383771Y-86160876D02*
X111288533Y-86256114D01*
X111288533Y-86256114D02*
X111193295Y-86303733D01*
X112717104Y-87018019D02*
X112145676Y-87018019D01*
X112431390Y-87018019D02*
X112431390Y-86018019D01*
X112431390Y-86018019D02*
X112336152Y-86160876D01*
X112336152Y-86160876D02*
X112240914Y-86256114D01*
X112240914Y-86256114D02*
X112145676Y-86303733D01*
X77241319Y-89135357D02*
X76765128Y-89468690D01*
X77241319Y-89706785D02*
X76241319Y-89706785D01*
X76241319Y-89706785D02*
X76241319Y-89325833D01*
X76241319Y-89325833D02*
X76288938Y-89230595D01*
X76288938Y-89230595D02*
X76336557Y-89182976D01*
X76336557Y-89182976D02*
X76431795Y-89135357D01*
X76431795Y-89135357D02*
X76574652Y-89135357D01*
X76574652Y-89135357D02*
X76669890Y-89182976D01*
X76669890Y-89182976D02*
X76717509Y-89230595D01*
X76717509Y-89230595D02*
X76765128Y-89325833D01*
X76765128Y-89325833D02*
X76765128Y-89706785D01*
X76336557Y-88754404D02*
X76288938Y-88706785D01*
X76288938Y-88706785D02*
X76241319Y-88611547D01*
X76241319Y-88611547D02*
X76241319Y-88373452D01*
X76241319Y-88373452D02*
X76288938Y-88278214D01*
X76288938Y-88278214D02*
X76336557Y-88230595D01*
X76336557Y-88230595D02*
X76431795Y-88182976D01*
X76431795Y-88182976D02*
X76527033Y-88182976D01*
X76527033Y-88182976D02*
X76669890Y-88230595D01*
X76669890Y-88230595D02*
X77241319Y-88802023D01*
X77241319Y-88802023D02*
X77241319Y-88182976D01*
X76241319Y-87849642D02*
X76241319Y-87230595D01*
X76241319Y-87230595D02*
X76622271Y-87563928D01*
X76622271Y-87563928D02*
X76622271Y-87421071D01*
X76622271Y-87421071D02*
X76669890Y-87325833D01*
X76669890Y-87325833D02*
X76717509Y-87278214D01*
X76717509Y-87278214D02*
X76812747Y-87230595D01*
X76812747Y-87230595D02*
X77050842Y-87230595D01*
X77050842Y-87230595D02*
X77146080Y-87278214D01*
X77146080Y-87278214D02*
X77193700Y-87325833D01*
X77193700Y-87325833D02*
X77241319Y-87421071D01*
X77241319Y-87421071D02*
X77241319Y-87706785D01*
X77241319Y-87706785D02*
X77193700Y-87802023D01*
X77193700Y-87802023D02*
X77146080Y-87849642D01*
X95910495Y-92556419D02*
X95910495Y-93365942D01*
X95910495Y-93365942D02*
X95958114Y-93461180D01*
X95958114Y-93461180D02*
X96005733Y-93508800D01*
X96005733Y-93508800D02*
X96100971Y-93556419D01*
X96100971Y-93556419D02*
X96291447Y-93556419D01*
X96291447Y-93556419D02*
X96386685Y-93508800D01*
X96386685Y-93508800D02*
X96434304Y-93461180D01*
X96434304Y-93461180D02*
X96481923Y-93365942D01*
X96481923Y-93365942D02*
X96481923Y-92556419D01*
X96910495Y-92651657D02*
X96958114Y-92604038D01*
X96958114Y-92604038D02*
X97053352Y-92556419D01*
X97053352Y-92556419D02*
X97291447Y-92556419D01*
X97291447Y-92556419D02*
X97386685Y-92604038D01*
X97386685Y-92604038D02*
X97434304Y-92651657D01*
X97434304Y-92651657D02*
X97481923Y-92746895D01*
X97481923Y-92746895D02*
X97481923Y-92842133D01*
X97481923Y-92842133D02*
X97434304Y-92984990D01*
X97434304Y-92984990D02*
X96862876Y-93556419D01*
X96862876Y-93556419D02*
X97481923Y-93556419D01*
X100860266Y-99770019D02*
X100860266Y-100484304D01*
X100860266Y-100484304D02*
X100812647Y-100627161D01*
X100812647Y-100627161D02*
X100717409Y-100722400D01*
X100717409Y-100722400D02*
X100574552Y-100770019D01*
X100574552Y-100770019D02*
X100479314Y-100770019D01*
X101765028Y-100103352D02*
X101765028Y-100770019D01*
X101526933Y-99722400D02*
X101288838Y-100436685D01*
X101288838Y-100436685D02*
X101907885Y-100436685D01*
X108769161Y-94146257D02*
X108673923Y-94098638D01*
X108673923Y-94098638D02*
X108578685Y-94003400D01*
X108578685Y-94003400D02*
X108435828Y-93860542D01*
X108435828Y-93860542D02*
X108340590Y-93812923D01*
X108340590Y-93812923D02*
X108245352Y-93812923D01*
X108292971Y-94051019D02*
X108197733Y-94003400D01*
X108197733Y-94003400D02*
X108102495Y-93908161D01*
X108102495Y-93908161D02*
X108054876Y-93717685D01*
X108054876Y-93717685D02*
X108054876Y-93384352D01*
X108054876Y-93384352D02*
X108102495Y-93193876D01*
X108102495Y-93193876D02*
X108197733Y-93098638D01*
X108197733Y-93098638D02*
X108292971Y-93051019D01*
X108292971Y-93051019D02*
X108483447Y-93051019D01*
X108483447Y-93051019D02*
X108578685Y-93098638D01*
X108578685Y-93098638D02*
X108673923Y-93193876D01*
X108673923Y-93193876D02*
X108721542Y-93384352D01*
X108721542Y-93384352D02*
X108721542Y-93717685D01*
X108721542Y-93717685D02*
X108673923Y-93908161D01*
X108673923Y-93908161D02*
X108578685Y-94003400D01*
X108578685Y-94003400D02*
X108483447Y-94051019D01*
X108483447Y-94051019D02*
X108292971Y-94051019D01*
X109054876Y-93051019D02*
X109721542Y-93051019D01*
X109721542Y-93051019D02*
X109292971Y-94051019D01*
X101553180Y-93522266D02*
X101600800Y-93569885D01*
X101600800Y-93569885D02*
X101648419Y-93712742D01*
X101648419Y-93712742D02*
X101648419Y-93807980D01*
X101648419Y-93807980D02*
X101600800Y-93950837D01*
X101600800Y-93950837D02*
X101505561Y-94046075D01*
X101505561Y-94046075D02*
X101410323Y-94093694D01*
X101410323Y-94093694D02*
X101219847Y-94141313D01*
X101219847Y-94141313D02*
X101076990Y-94141313D01*
X101076990Y-94141313D02*
X100886514Y-94093694D01*
X100886514Y-94093694D02*
X100791276Y-94046075D01*
X100791276Y-94046075D02*
X100696038Y-93950837D01*
X100696038Y-93950837D02*
X100648419Y-93807980D01*
X100648419Y-93807980D02*
X100648419Y-93712742D01*
X100648419Y-93712742D02*
X100696038Y-93569885D01*
X100696038Y-93569885D02*
X100743657Y-93522266D01*
X100648419Y-93188932D02*
X100648419Y-92522266D01*
X100648419Y-92522266D02*
X101648419Y-92950837D01*
X110812342Y-94051019D02*
X110479009Y-93574828D01*
X110240914Y-94051019D02*
X110240914Y-93051019D01*
X110240914Y-93051019D02*
X110621866Y-93051019D01*
X110621866Y-93051019D02*
X110717104Y-93098638D01*
X110717104Y-93098638D02*
X110764723Y-93146257D01*
X110764723Y-93146257D02*
X110812342Y-93241495D01*
X110812342Y-93241495D02*
X110812342Y-93384352D01*
X110812342Y-93384352D02*
X110764723Y-93479590D01*
X110764723Y-93479590D02*
X110717104Y-93527209D01*
X110717104Y-93527209D02*
X110621866Y-93574828D01*
X110621866Y-93574828D02*
X110240914Y-93574828D01*
X111764723Y-94051019D02*
X111193295Y-94051019D01*
X111479009Y-94051019D02*
X111479009Y-93051019D01*
X111479009Y-93051019D02*
X111383771Y-93193876D01*
X111383771Y-93193876D02*
X111288533Y-93289114D01*
X111288533Y-93289114D02*
X111193295Y-93336733D01*
X112669485Y-93051019D02*
X112193295Y-93051019D01*
X112193295Y-93051019D02*
X112145676Y-93527209D01*
X112145676Y-93527209D02*
X112193295Y-93479590D01*
X112193295Y-93479590D02*
X112288533Y-93431971D01*
X112288533Y-93431971D02*
X112526628Y-93431971D01*
X112526628Y-93431971D02*
X112621866Y-93479590D01*
X112621866Y-93479590D02*
X112669485Y-93527209D01*
X112669485Y-93527209D02*
X112717104Y-93622447D01*
X112717104Y-93622447D02*
X112717104Y-93860542D01*
X112717104Y-93860542D02*
X112669485Y-93955780D01*
X112669485Y-93955780D02*
X112621866Y-94003400D01*
X112621866Y-94003400D02*
X112526628Y-94051019D01*
X112526628Y-94051019D02*
X112288533Y-94051019D01*
X112288533Y-94051019D02*
X112193295Y-94003400D01*
X112193295Y-94003400D02*
X112145676Y-93955780D01*
X69560271Y-90363357D02*
X69465033Y-90315738D01*
X69465033Y-90315738D02*
X69369795Y-90220500D01*
X69369795Y-90220500D02*
X69226938Y-90077642D01*
X69226938Y-90077642D02*
X69131700Y-90030023D01*
X69131700Y-90030023D02*
X69036462Y-90030023D01*
X69084081Y-90268119D02*
X68988843Y-90220500D01*
X68988843Y-90220500D02*
X68893605Y-90125261D01*
X68893605Y-90125261D02*
X68845986Y-89934785D01*
X68845986Y-89934785D02*
X68845986Y-89601452D01*
X68845986Y-89601452D02*
X68893605Y-89410976D01*
X68893605Y-89410976D02*
X68988843Y-89315738D01*
X68988843Y-89315738D02*
X69084081Y-89268119D01*
X69084081Y-89268119D02*
X69274557Y-89268119D01*
X69274557Y-89268119D02*
X69369795Y-89315738D01*
X69369795Y-89315738D02*
X69465033Y-89410976D01*
X69465033Y-89410976D02*
X69512652Y-89601452D01*
X69512652Y-89601452D02*
X69512652Y-89934785D01*
X69512652Y-89934785D02*
X69465033Y-90125261D01*
X69465033Y-90125261D02*
X69369795Y-90220500D01*
X69369795Y-90220500D02*
X69274557Y-90268119D01*
X69274557Y-90268119D02*
X69084081Y-90268119D01*
X70465033Y-90268119D02*
X69893605Y-90268119D01*
X70179319Y-90268119D02*
X70179319Y-89268119D01*
X70179319Y-89268119D02*
X70084081Y-89410976D01*
X70084081Y-89410976D02*
X69988843Y-89506214D01*
X69988843Y-89506214D02*
X69893605Y-89553833D01*
X70798367Y-89268119D02*
X71417414Y-89268119D01*
X71417414Y-89268119D02*
X71084081Y-89649071D01*
X71084081Y-89649071D02*
X71226938Y-89649071D01*
X71226938Y-89649071D02*
X71322176Y-89696690D01*
X71322176Y-89696690D02*
X71369795Y-89744309D01*
X71369795Y-89744309D02*
X71417414Y-89839547D01*
X71417414Y-89839547D02*
X71417414Y-90077642D01*
X71417414Y-90077642D02*
X71369795Y-90172880D01*
X71369795Y-90172880D02*
X71322176Y-90220500D01*
X71322176Y-90220500D02*
X71226938Y-90268119D01*
X71226938Y-90268119D02*
X70941224Y-90268119D01*
X70941224Y-90268119D02*
X70845986Y-90220500D01*
X70845986Y-90220500D02*
X70798367Y-90172880D01*
X66565542Y-82954019D02*
X66232209Y-82477828D01*
X65994114Y-82954019D02*
X65994114Y-81954019D01*
X65994114Y-81954019D02*
X66375066Y-81954019D01*
X66375066Y-81954019D02*
X66470304Y-82001638D01*
X66470304Y-82001638D02*
X66517923Y-82049257D01*
X66517923Y-82049257D02*
X66565542Y-82144495D01*
X66565542Y-82144495D02*
X66565542Y-82287352D01*
X66565542Y-82287352D02*
X66517923Y-82382590D01*
X66517923Y-82382590D02*
X66470304Y-82430209D01*
X66470304Y-82430209D02*
X66375066Y-82477828D01*
X66375066Y-82477828D02*
X65994114Y-82477828D01*
X66946495Y-82049257D02*
X66994114Y-82001638D01*
X66994114Y-82001638D02*
X67089352Y-81954019D01*
X67089352Y-81954019D02*
X67327447Y-81954019D01*
X67327447Y-81954019D02*
X67422685Y-82001638D01*
X67422685Y-82001638D02*
X67470304Y-82049257D01*
X67470304Y-82049257D02*
X67517923Y-82144495D01*
X67517923Y-82144495D02*
X67517923Y-82239733D01*
X67517923Y-82239733D02*
X67470304Y-82382590D01*
X67470304Y-82382590D02*
X66898876Y-82954019D01*
X66898876Y-82954019D02*
X67517923Y-82954019D01*
X68422685Y-81954019D02*
X67946495Y-81954019D01*
X67946495Y-81954019D02*
X67898876Y-82430209D01*
X67898876Y-82430209D02*
X67946495Y-82382590D01*
X67946495Y-82382590D02*
X68041733Y-82334971D01*
X68041733Y-82334971D02*
X68279828Y-82334971D01*
X68279828Y-82334971D02*
X68375066Y-82382590D01*
X68375066Y-82382590D02*
X68422685Y-82430209D01*
X68422685Y-82430209D02*
X68470304Y-82525447D01*
X68470304Y-82525447D02*
X68470304Y-82763542D01*
X68470304Y-82763542D02*
X68422685Y-82858780D01*
X68422685Y-82858780D02*
X68375066Y-82906400D01*
X68375066Y-82906400D02*
X68279828Y-82954019D01*
X68279828Y-82954019D02*
X68041733Y-82954019D01*
X68041733Y-82954019D02*
X67946495Y-82906400D01*
X67946495Y-82906400D02*
X67898876Y-82858780D01*
X88276395Y-92759619D02*
X88276395Y-93569142D01*
X88276395Y-93569142D02*
X88324014Y-93664380D01*
X88324014Y-93664380D02*
X88371633Y-93712000D01*
X88371633Y-93712000D02*
X88466871Y-93759619D01*
X88466871Y-93759619D02*
X88657347Y-93759619D01*
X88657347Y-93759619D02*
X88752585Y-93712000D01*
X88752585Y-93712000D02*
X88800204Y-93664380D01*
X88800204Y-93664380D02*
X88847823Y-93569142D01*
X88847823Y-93569142D02*
X88847823Y-92759619D01*
X89228776Y-92759619D02*
X89847823Y-92759619D01*
X89847823Y-92759619D02*
X89514490Y-93140571D01*
X89514490Y-93140571D02*
X89657347Y-93140571D01*
X89657347Y-93140571D02*
X89752585Y-93188190D01*
X89752585Y-93188190D02*
X89800204Y-93235809D01*
X89800204Y-93235809D02*
X89847823Y-93331047D01*
X89847823Y-93331047D02*
X89847823Y-93569142D01*
X89847823Y-93569142D02*
X89800204Y-93664380D01*
X89800204Y-93664380D02*
X89752585Y-93712000D01*
X89752585Y-93712000D02*
X89657347Y-93759619D01*
X89657347Y-93759619D02*
X89371633Y-93759619D01*
X89371633Y-93759619D02*
X89276395Y-93712000D01*
X89276395Y-93712000D02*
X89228776Y-93664380D01*
X108819961Y-76366257D02*
X108724723Y-76318638D01*
X108724723Y-76318638D02*
X108629485Y-76223400D01*
X108629485Y-76223400D02*
X108486628Y-76080542D01*
X108486628Y-76080542D02*
X108391390Y-76032923D01*
X108391390Y-76032923D02*
X108296152Y-76032923D01*
X108343771Y-76271019D02*
X108248533Y-76223400D01*
X108248533Y-76223400D02*
X108153295Y-76128161D01*
X108153295Y-76128161D02*
X108105676Y-75937685D01*
X108105676Y-75937685D02*
X108105676Y-75604352D01*
X108105676Y-75604352D02*
X108153295Y-75413876D01*
X108153295Y-75413876D02*
X108248533Y-75318638D01*
X108248533Y-75318638D02*
X108343771Y-75271019D01*
X108343771Y-75271019D02*
X108534247Y-75271019D01*
X108534247Y-75271019D02*
X108629485Y-75318638D01*
X108629485Y-75318638D02*
X108724723Y-75413876D01*
X108724723Y-75413876D02*
X108772342Y-75604352D01*
X108772342Y-75604352D02*
X108772342Y-75937685D01*
X108772342Y-75937685D02*
X108724723Y-76128161D01*
X108724723Y-76128161D02*
X108629485Y-76223400D01*
X108629485Y-76223400D02*
X108534247Y-76271019D01*
X108534247Y-76271019D02*
X108343771Y-76271019D01*
X109153295Y-75366257D02*
X109200914Y-75318638D01*
X109200914Y-75318638D02*
X109296152Y-75271019D01*
X109296152Y-75271019D02*
X109534247Y-75271019D01*
X109534247Y-75271019D02*
X109629485Y-75318638D01*
X109629485Y-75318638D02*
X109677104Y-75366257D01*
X109677104Y-75366257D02*
X109724723Y-75461495D01*
X109724723Y-75461495D02*
X109724723Y-75556733D01*
X109724723Y-75556733D02*
X109677104Y-75699590D01*
X109677104Y-75699590D02*
X109105676Y-76271019D01*
X109105676Y-76271019D02*
X109724723Y-76271019D01*
X115795466Y-76791319D02*
X115795466Y-77505604D01*
X115795466Y-77505604D02*
X115747847Y-77648461D01*
X115747847Y-77648461D02*
X115652609Y-77743700D01*
X115652609Y-77743700D02*
X115509752Y-77791319D01*
X115509752Y-77791319D02*
X115414514Y-77791319D01*
X116795466Y-77791319D02*
X116224038Y-77791319D01*
X116509752Y-77791319D02*
X116509752Y-76791319D01*
X116509752Y-76791319D02*
X116414514Y-76934176D01*
X116414514Y-76934176D02*
X116319276Y-77029414D01*
X116319276Y-77029414D02*
X116224038Y-77077033D01*
X108819961Y-83608057D02*
X108724723Y-83560438D01*
X108724723Y-83560438D02*
X108629485Y-83465200D01*
X108629485Y-83465200D02*
X108486628Y-83322342D01*
X108486628Y-83322342D02*
X108391390Y-83274723D01*
X108391390Y-83274723D02*
X108296152Y-83274723D01*
X108343771Y-83512819D02*
X108248533Y-83465200D01*
X108248533Y-83465200D02*
X108153295Y-83369961D01*
X108153295Y-83369961D02*
X108105676Y-83179485D01*
X108105676Y-83179485D02*
X108105676Y-82846152D01*
X108105676Y-82846152D02*
X108153295Y-82655676D01*
X108153295Y-82655676D02*
X108248533Y-82560438D01*
X108248533Y-82560438D02*
X108343771Y-82512819D01*
X108343771Y-82512819D02*
X108534247Y-82512819D01*
X108534247Y-82512819D02*
X108629485Y-82560438D01*
X108629485Y-82560438D02*
X108724723Y-82655676D01*
X108724723Y-82655676D02*
X108772342Y-82846152D01*
X108772342Y-82846152D02*
X108772342Y-83179485D01*
X108772342Y-83179485D02*
X108724723Y-83369961D01*
X108724723Y-83369961D02*
X108629485Y-83465200D01*
X108629485Y-83465200D02*
X108534247Y-83512819D01*
X108534247Y-83512819D02*
X108343771Y-83512819D01*
X109629485Y-82846152D02*
X109629485Y-83512819D01*
X109391390Y-82465200D02*
X109153295Y-83179485D01*
X109153295Y-83179485D02*
X109772342Y-83179485D01*
X103172419Y-74015766D02*
X102696228Y-74349099D01*
X103172419Y-74587194D02*
X102172419Y-74587194D01*
X102172419Y-74587194D02*
X102172419Y-74206242D01*
X102172419Y-74206242D02*
X102220038Y-74111004D01*
X102220038Y-74111004D02*
X102267657Y-74063385D01*
X102267657Y-74063385D02*
X102362895Y-74015766D01*
X102362895Y-74015766D02*
X102505752Y-74015766D01*
X102505752Y-74015766D02*
X102600990Y-74063385D01*
X102600990Y-74063385D02*
X102648609Y-74111004D01*
X102648609Y-74111004D02*
X102696228Y-74206242D01*
X102696228Y-74206242D02*
X102696228Y-74587194D01*
X102172419Y-73682432D02*
X102172419Y-73063385D01*
X102172419Y-73063385D02*
X102553371Y-73396718D01*
X102553371Y-73396718D02*
X102553371Y-73253861D01*
X102553371Y-73253861D02*
X102600990Y-73158623D01*
X102600990Y-73158623D02*
X102648609Y-73111004D01*
X102648609Y-73111004D02*
X102743847Y-73063385D01*
X102743847Y-73063385D02*
X102981942Y-73063385D01*
X102981942Y-73063385D02*
X103077180Y-73111004D01*
X103077180Y-73111004D02*
X103124800Y-73158623D01*
X103124800Y-73158623D02*
X103172419Y-73253861D01*
X103172419Y-73253861D02*
X103172419Y-73539575D01*
X103172419Y-73539575D02*
X103124800Y-73634813D01*
X103124800Y-73634813D02*
X103077180Y-73682432D01*
X108870761Y-80088757D02*
X108775523Y-80041138D01*
X108775523Y-80041138D02*
X108680285Y-79945900D01*
X108680285Y-79945900D02*
X108537428Y-79803042D01*
X108537428Y-79803042D02*
X108442190Y-79755423D01*
X108442190Y-79755423D02*
X108346952Y-79755423D01*
X108394571Y-79993519D02*
X108299333Y-79945900D01*
X108299333Y-79945900D02*
X108204095Y-79850661D01*
X108204095Y-79850661D02*
X108156476Y-79660185D01*
X108156476Y-79660185D02*
X108156476Y-79326852D01*
X108156476Y-79326852D02*
X108204095Y-79136376D01*
X108204095Y-79136376D02*
X108299333Y-79041138D01*
X108299333Y-79041138D02*
X108394571Y-78993519D01*
X108394571Y-78993519D02*
X108585047Y-78993519D01*
X108585047Y-78993519D02*
X108680285Y-79041138D01*
X108680285Y-79041138D02*
X108775523Y-79136376D01*
X108775523Y-79136376D02*
X108823142Y-79326852D01*
X108823142Y-79326852D02*
X108823142Y-79660185D01*
X108823142Y-79660185D02*
X108775523Y-79850661D01*
X108775523Y-79850661D02*
X108680285Y-79945900D01*
X108680285Y-79945900D02*
X108585047Y-79993519D01*
X108585047Y-79993519D02*
X108394571Y-79993519D01*
X109156476Y-78993519D02*
X109775523Y-78993519D01*
X109775523Y-78993519D02*
X109442190Y-79374471D01*
X109442190Y-79374471D02*
X109585047Y-79374471D01*
X109585047Y-79374471D02*
X109680285Y-79422090D01*
X109680285Y-79422090D02*
X109727904Y-79469709D01*
X109727904Y-79469709D02*
X109775523Y-79564947D01*
X109775523Y-79564947D02*
X109775523Y-79803042D01*
X109775523Y-79803042D02*
X109727904Y-79898280D01*
X109727904Y-79898280D02*
X109680285Y-79945900D01*
X109680285Y-79945900D02*
X109585047Y-79993519D01*
X109585047Y-79993519D02*
X109299333Y-79993519D01*
X109299333Y-79993519D02*
X109204095Y-79945900D01*
X109204095Y-79945900D02*
X109156476Y-79898280D01*
X87765919Y-93693657D02*
X87289728Y-94026990D01*
X87765919Y-94265085D02*
X86765919Y-94265085D01*
X86765919Y-94265085D02*
X86765919Y-93884133D01*
X86765919Y-93884133D02*
X86813538Y-93788895D01*
X86813538Y-93788895D02*
X86861157Y-93741276D01*
X86861157Y-93741276D02*
X86956395Y-93693657D01*
X86956395Y-93693657D02*
X87099252Y-93693657D01*
X87099252Y-93693657D02*
X87194490Y-93741276D01*
X87194490Y-93741276D02*
X87242109Y-93788895D01*
X87242109Y-93788895D02*
X87289728Y-93884133D01*
X87289728Y-93884133D02*
X87289728Y-94265085D01*
X86861157Y-93312704D02*
X86813538Y-93265085D01*
X86813538Y-93265085D02*
X86765919Y-93169847D01*
X86765919Y-93169847D02*
X86765919Y-92931752D01*
X86765919Y-92931752D02*
X86813538Y-92836514D01*
X86813538Y-92836514D02*
X86861157Y-92788895D01*
X86861157Y-92788895D02*
X86956395Y-92741276D01*
X86956395Y-92741276D02*
X87051633Y-92741276D01*
X87051633Y-92741276D02*
X87194490Y-92788895D01*
X87194490Y-92788895D02*
X87765919Y-93360323D01*
X87765919Y-93360323D02*
X87765919Y-92741276D01*
X86765919Y-92407942D02*
X86765919Y-91741276D01*
X86765919Y-91741276D02*
X87765919Y-92169847D01*
X69471671Y-100921157D02*
X69376433Y-100873538D01*
X69376433Y-100873538D02*
X69281195Y-100778300D01*
X69281195Y-100778300D02*
X69138338Y-100635442D01*
X69138338Y-100635442D02*
X69043100Y-100587823D01*
X69043100Y-100587823D02*
X68947862Y-100587823D01*
X68995481Y-100825919D02*
X68900243Y-100778300D01*
X68900243Y-100778300D02*
X68805005Y-100683061D01*
X68805005Y-100683061D02*
X68757386Y-100492585D01*
X68757386Y-100492585D02*
X68757386Y-100159252D01*
X68757386Y-100159252D02*
X68805005Y-99968776D01*
X68805005Y-99968776D02*
X68900243Y-99873538D01*
X68900243Y-99873538D02*
X68995481Y-99825919D01*
X68995481Y-99825919D02*
X69185957Y-99825919D01*
X69185957Y-99825919D02*
X69281195Y-99873538D01*
X69281195Y-99873538D02*
X69376433Y-99968776D01*
X69376433Y-99968776D02*
X69424052Y-100159252D01*
X69424052Y-100159252D02*
X69424052Y-100492585D01*
X69424052Y-100492585D02*
X69376433Y-100683061D01*
X69376433Y-100683061D02*
X69281195Y-100778300D01*
X69281195Y-100778300D02*
X69185957Y-100825919D01*
X69185957Y-100825919D02*
X68995481Y-100825919D01*
X70376433Y-100825919D02*
X69805005Y-100825919D01*
X70090719Y-100825919D02*
X70090719Y-99825919D01*
X70090719Y-99825919D02*
X69995481Y-99968776D01*
X69995481Y-99968776D02*
X69900243Y-100064014D01*
X69900243Y-100064014D02*
X69805005Y-100111633D01*
X70995481Y-99825919D02*
X71090719Y-99825919D01*
X71090719Y-99825919D02*
X71185957Y-99873538D01*
X71185957Y-99873538D02*
X71233576Y-99921157D01*
X71233576Y-99921157D02*
X71281195Y-100016395D01*
X71281195Y-100016395D02*
X71328814Y-100206871D01*
X71328814Y-100206871D02*
X71328814Y-100444966D01*
X71328814Y-100444966D02*
X71281195Y-100635442D01*
X71281195Y-100635442D02*
X71233576Y-100730680D01*
X71233576Y-100730680D02*
X71185957Y-100778300D01*
X71185957Y-100778300D02*
X71090719Y-100825919D01*
X71090719Y-100825919D02*
X70995481Y-100825919D01*
X70995481Y-100825919D02*
X70900243Y-100778300D01*
X70900243Y-100778300D02*
X70852624Y-100730680D01*
X70852624Y-100730680D02*
X70805005Y-100635442D01*
X70805005Y-100635442D02*
X70757386Y-100444966D01*
X70757386Y-100444966D02*
X70757386Y-100206871D01*
X70757386Y-100206871D02*
X70805005Y-100016395D01*
X70805005Y-100016395D02*
X70852624Y-99921157D01*
X70852624Y-99921157D02*
X70900243Y-99873538D01*
X70900243Y-99873538D02*
X70995481Y-99825919D01*
X110932933Y-76271019D02*
X110599600Y-75794828D01*
X110361505Y-76271019D02*
X110361505Y-75271019D01*
X110361505Y-75271019D02*
X110742457Y-75271019D01*
X110742457Y-75271019D02*
X110837695Y-75318638D01*
X110837695Y-75318638D02*
X110885314Y-75366257D01*
X110885314Y-75366257D02*
X110932933Y-75461495D01*
X110932933Y-75461495D02*
X110932933Y-75604352D01*
X110932933Y-75604352D02*
X110885314Y-75699590D01*
X110885314Y-75699590D02*
X110837695Y-75747209D01*
X110837695Y-75747209D02*
X110742457Y-75794828D01*
X110742457Y-75794828D02*
X110361505Y-75794828D01*
X111837695Y-75271019D02*
X111361505Y-75271019D01*
X111361505Y-75271019D02*
X111313886Y-75747209D01*
X111313886Y-75747209D02*
X111361505Y-75699590D01*
X111361505Y-75699590D02*
X111456743Y-75651971D01*
X111456743Y-75651971D02*
X111694838Y-75651971D01*
X111694838Y-75651971D02*
X111790076Y-75699590D01*
X111790076Y-75699590D02*
X111837695Y-75747209D01*
X111837695Y-75747209D02*
X111885314Y-75842447D01*
X111885314Y-75842447D02*
X111885314Y-76080542D01*
X111885314Y-76080542D02*
X111837695Y-76175780D01*
X111837695Y-76175780D02*
X111790076Y-76223400D01*
X111790076Y-76223400D02*
X111694838Y-76271019D01*
X111694838Y-76271019D02*
X111456743Y-76271019D01*
X111456743Y-76271019D02*
X111361505Y-76223400D01*
X111361505Y-76223400D02*
X111313886Y-76175780D01*
X80342419Y-86740204D02*
X81151942Y-86740204D01*
X81151942Y-86740204D02*
X81247180Y-86692585D01*
X81247180Y-86692585D02*
X81294800Y-86644966D01*
X81294800Y-86644966D02*
X81342419Y-86549728D01*
X81342419Y-86549728D02*
X81342419Y-86359252D01*
X81342419Y-86359252D02*
X81294800Y-86264014D01*
X81294800Y-86264014D02*
X81247180Y-86216395D01*
X81247180Y-86216395D02*
X81151942Y-86168776D01*
X81151942Y-86168776D02*
X80342419Y-86168776D01*
X81342419Y-85168776D02*
X81342419Y-85740204D01*
X81342419Y-85454490D02*
X80342419Y-85454490D01*
X80342419Y-85454490D02*
X80485276Y-85549728D01*
X80485276Y-85549728D02*
X80580514Y-85644966D01*
X80580514Y-85644966D02*
X80628133Y-85740204D01*
X108769161Y-97716357D02*
X108673923Y-97668738D01*
X108673923Y-97668738D02*
X108578685Y-97573500D01*
X108578685Y-97573500D02*
X108435828Y-97430642D01*
X108435828Y-97430642D02*
X108340590Y-97383023D01*
X108340590Y-97383023D02*
X108245352Y-97383023D01*
X108292971Y-97621119D02*
X108197733Y-97573500D01*
X108197733Y-97573500D02*
X108102495Y-97478261D01*
X108102495Y-97478261D02*
X108054876Y-97287785D01*
X108054876Y-97287785D02*
X108054876Y-96954452D01*
X108054876Y-96954452D02*
X108102495Y-96763976D01*
X108102495Y-96763976D02*
X108197733Y-96668738D01*
X108197733Y-96668738D02*
X108292971Y-96621119D01*
X108292971Y-96621119D02*
X108483447Y-96621119D01*
X108483447Y-96621119D02*
X108578685Y-96668738D01*
X108578685Y-96668738D02*
X108673923Y-96763976D01*
X108673923Y-96763976D02*
X108721542Y-96954452D01*
X108721542Y-96954452D02*
X108721542Y-97287785D01*
X108721542Y-97287785D02*
X108673923Y-97478261D01*
X108673923Y-97478261D02*
X108578685Y-97573500D01*
X108578685Y-97573500D02*
X108483447Y-97621119D01*
X108483447Y-97621119D02*
X108292971Y-97621119D01*
X109292971Y-97049690D02*
X109197733Y-97002071D01*
X109197733Y-97002071D02*
X109150114Y-96954452D01*
X109150114Y-96954452D02*
X109102495Y-96859214D01*
X109102495Y-96859214D02*
X109102495Y-96811595D01*
X109102495Y-96811595D02*
X109150114Y-96716357D01*
X109150114Y-96716357D02*
X109197733Y-96668738D01*
X109197733Y-96668738D02*
X109292971Y-96621119D01*
X109292971Y-96621119D02*
X109483447Y-96621119D01*
X109483447Y-96621119D02*
X109578685Y-96668738D01*
X109578685Y-96668738D02*
X109626304Y-96716357D01*
X109626304Y-96716357D02*
X109673923Y-96811595D01*
X109673923Y-96811595D02*
X109673923Y-96859214D01*
X109673923Y-96859214D02*
X109626304Y-96954452D01*
X109626304Y-96954452D02*
X109578685Y-97002071D01*
X109578685Y-97002071D02*
X109483447Y-97049690D01*
X109483447Y-97049690D02*
X109292971Y-97049690D01*
X109292971Y-97049690D02*
X109197733Y-97097309D01*
X109197733Y-97097309D02*
X109150114Y-97144928D01*
X109150114Y-97144928D02*
X109102495Y-97240166D01*
X109102495Y-97240166D02*
X109102495Y-97430642D01*
X109102495Y-97430642D02*
X109150114Y-97525880D01*
X109150114Y-97525880D02*
X109197733Y-97573500D01*
X109197733Y-97573500D02*
X109292971Y-97621119D01*
X109292971Y-97621119D02*
X109483447Y-97621119D01*
X109483447Y-97621119D02*
X109578685Y-97573500D01*
X109578685Y-97573500D02*
X109626304Y-97525880D01*
X109626304Y-97525880D02*
X109673923Y-97430642D01*
X109673923Y-97430642D02*
X109673923Y-97240166D01*
X109673923Y-97240166D02*
X109626304Y-97144928D01*
X109626304Y-97144928D02*
X109578685Y-97097309D01*
X109578685Y-97097309D02*
X109483447Y-97049690D01*
X77203519Y-99743957D02*
X76727328Y-100077290D01*
X77203519Y-100315385D02*
X76203519Y-100315385D01*
X76203519Y-100315385D02*
X76203519Y-99934433D01*
X76203519Y-99934433D02*
X76251138Y-99839195D01*
X76251138Y-99839195D02*
X76298757Y-99791576D01*
X76298757Y-99791576D02*
X76393995Y-99743957D01*
X76393995Y-99743957D02*
X76536852Y-99743957D01*
X76536852Y-99743957D02*
X76632090Y-99791576D01*
X76632090Y-99791576D02*
X76679709Y-99839195D01*
X76679709Y-99839195D02*
X76727328Y-99934433D01*
X76727328Y-99934433D02*
X76727328Y-100315385D01*
X76298757Y-99363004D02*
X76251138Y-99315385D01*
X76251138Y-99315385D02*
X76203519Y-99220147D01*
X76203519Y-99220147D02*
X76203519Y-98982052D01*
X76203519Y-98982052D02*
X76251138Y-98886814D01*
X76251138Y-98886814D02*
X76298757Y-98839195D01*
X76298757Y-98839195D02*
X76393995Y-98791576D01*
X76393995Y-98791576D02*
X76489233Y-98791576D01*
X76489233Y-98791576D02*
X76632090Y-98839195D01*
X76632090Y-98839195D02*
X77203519Y-99410623D01*
X77203519Y-99410623D02*
X77203519Y-98791576D01*
X76203519Y-98172528D02*
X76203519Y-98077290D01*
X76203519Y-98077290D02*
X76251138Y-97982052D01*
X76251138Y-97982052D02*
X76298757Y-97934433D01*
X76298757Y-97934433D02*
X76393995Y-97886814D01*
X76393995Y-97886814D02*
X76584471Y-97839195D01*
X76584471Y-97839195D02*
X76822566Y-97839195D01*
X76822566Y-97839195D02*
X77013042Y-97886814D01*
X77013042Y-97886814D02*
X77108280Y-97934433D01*
X77108280Y-97934433D02*
X77155900Y-97982052D01*
X77155900Y-97982052D02*
X77203519Y-98077290D01*
X77203519Y-98077290D02*
X77203519Y-98172528D01*
X77203519Y-98172528D02*
X77155900Y-98267766D01*
X77155900Y-98267766D02*
X77108280Y-98315385D01*
X77108280Y-98315385D02*
X77013042Y-98363004D01*
X77013042Y-98363004D02*
X76822566Y-98410623D01*
X76822566Y-98410623D02*
X76584471Y-98410623D01*
X76584471Y-98410623D02*
X76393995Y-98363004D01*
X76393995Y-98363004D02*
X76298757Y-98315385D01*
X76298757Y-98315385D02*
X76251138Y-98267766D01*
X76251138Y-98267766D02*
X76203519Y-98172528D01*
X110983733Y-79942719D02*
X110650400Y-79466528D01*
X110412305Y-79942719D02*
X110412305Y-78942719D01*
X110412305Y-78942719D02*
X110793257Y-78942719D01*
X110793257Y-78942719D02*
X110888495Y-78990338D01*
X110888495Y-78990338D02*
X110936114Y-79037957D01*
X110936114Y-79037957D02*
X110983733Y-79133195D01*
X110983733Y-79133195D02*
X110983733Y-79276052D01*
X110983733Y-79276052D02*
X110936114Y-79371290D01*
X110936114Y-79371290D02*
X110888495Y-79418909D01*
X110888495Y-79418909D02*
X110793257Y-79466528D01*
X110793257Y-79466528D02*
X110412305Y-79466528D01*
X111317067Y-78942719D02*
X111983733Y-78942719D01*
X111983733Y-78942719D02*
X111555162Y-79942719D01*
X65240819Y-85931333D02*
X65955104Y-85931333D01*
X65955104Y-85931333D02*
X66097961Y-85978952D01*
X66097961Y-85978952D02*
X66193200Y-86074190D01*
X66193200Y-86074190D02*
X66240819Y-86217047D01*
X66240819Y-86217047D02*
X66240819Y-86312285D01*
X65240819Y-85550380D02*
X65240819Y-84931333D01*
X65240819Y-84931333D02*
X65621771Y-85264666D01*
X65621771Y-85264666D02*
X65621771Y-85121809D01*
X65621771Y-85121809D02*
X65669390Y-85026571D01*
X65669390Y-85026571D02*
X65717009Y-84978952D01*
X65717009Y-84978952D02*
X65812247Y-84931333D01*
X65812247Y-84931333D02*
X66050342Y-84931333D01*
X66050342Y-84931333D02*
X66145580Y-84978952D01*
X66145580Y-84978952D02*
X66193200Y-85026571D01*
X66193200Y-85026571D02*
X66240819Y-85121809D01*
X66240819Y-85121809D02*
X66240819Y-85407523D01*
X66240819Y-85407523D02*
X66193200Y-85502761D01*
X66193200Y-85502761D02*
X66145580Y-85550380D01*
X73799867Y-70358800D02*
X73942724Y-70406419D01*
X73942724Y-70406419D02*
X74180819Y-70406419D01*
X74180819Y-70406419D02*
X74276057Y-70358800D01*
X74276057Y-70358800D02*
X74323676Y-70311180D01*
X74323676Y-70311180D02*
X74371295Y-70215942D01*
X74371295Y-70215942D02*
X74371295Y-70120704D01*
X74371295Y-70120704D02*
X74323676Y-70025466D01*
X74323676Y-70025466D02*
X74276057Y-69977847D01*
X74276057Y-69977847D02*
X74180819Y-69930228D01*
X74180819Y-69930228D02*
X73990343Y-69882609D01*
X73990343Y-69882609D02*
X73895105Y-69834990D01*
X73895105Y-69834990D02*
X73847486Y-69787371D01*
X73847486Y-69787371D02*
X73799867Y-69692133D01*
X73799867Y-69692133D02*
X73799867Y-69596895D01*
X73799867Y-69596895D02*
X73847486Y-69501657D01*
X73847486Y-69501657D02*
X73895105Y-69454038D01*
X73895105Y-69454038D02*
X73990343Y-69406419D01*
X73990343Y-69406419D02*
X74228438Y-69406419D01*
X74228438Y-69406419D02*
X74371295Y-69454038D01*
X74704629Y-69406419D02*
X74942724Y-70406419D01*
X74942724Y-70406419D02*
X75133200Y-69692133D01*
X75133200Y-69692133D02*
X75323676Y-70406419D01*
X75323676Y-70406419D02*
X75561772Y-69406419D01*
X76466533Y-70406419D02*
X75895105Y-70406419D01*
X76180819Y-70406419D02*
X76180819Y-69406419D01*
X76180819Y-69406419D02*
X76085581Y-69549276D01*
X76085581Y-69549276D02*
X75990343Y-69644514D01*
X75990343Y-69644514D02*
X75895105Y-69692133D01*
X110761542Y-97621119D02*
X110428209Y-97144928D01*
X110190114Y-97621119D02*
X110190114Y-96621119D01*
X110190114Y-96621119D02*
X110571066Y-96621119D01*
X110571066Y-96621119D02*
X110666304Y-96668738D01*
X110666304Y-96668738D02*
X110713923Y-96716357D01*
X110713923Y-96716357D02*
X110761542Y-96811595D01*
X110761542Y-96811595D02*
X110761542Y-96954452D01*
X110761542Y-96954452D02*
X110713923Y-97049690D01*
X110713923Y-97049690D02*
X110666304Y-97097309D01*
X110666304Y-97097309D02*
X110571066Y-97144928D01*
X110571066Y-97144928D02*
X110190114Y-97144928D01*
X111713923Y-97621119D02*
X111142495Y-97621119D01*
X111428209Y-97621119D02*
X111428209Y-96621119D01*
X111428209Y-96621119D02*
X111332971Y-96763976D01*
X111332971Y-96763976D02*
X111237733Y-96859214D01*
X111237733Y-96859214D02*
X111142495Y-96906833D01*
X112047257Y-96621119D02*
X112713923Y-96621119D01*
X112713923Y-96621119D02*
X112285352Y-97621119D01*
X77139719Y-92575657D02*
X76663528Y-92908990D01*
X77139719Y-93147085D02*
X76139719Y-93147085D01*
X76139719Y-93147085D02*
X76139719Y-92766133D01*
X76139719Y-92766133D02*
X76187338Y-92670895D01*
X76187338Y-92670895D02*
X76234957Y-92623276D01*
X76234957Y-92623276D02*
X76330195Y-92575657D01*
X76330195Y-92575657D02*
X76473052Y-92575657D01*
X76473052Y-92575657D02*
X76568290Y-92623276D01*
X76568290Y-92623276D02*
X76615909Y-92670895D01*
X76615909Y-92670895D02*
X76663528Y-92766133D01*
X76663528Y-92766133D02*
X76663528Y-93147085D01*
X76234957Y-92194704D02*
X76187338Y-92147085D01*
X76187338Y-92147085D02*
X76139719Y-92051847D01*
X76139719Y-92051847D02*
X76139719Y-91813752D01*
X76139719Y-91813752D02*
X76187338Y-91718514D01*
X76187338Y-91718514D02*
X76234957Y-91670895D01*
X76234957Y-91670895D02*
X76330195Y-91623276D01*
X76330195Y-91623276D02*
X76425433Y-91623276D01*
X76425433Y-91623276D02*
X76568290Y-91670895D01*
X76568290Y-91670895D02*
X77139719Y-92242323D01*
X77139719Y-92242323D02*
X77139719Y-91623276D01*
X76234957Y-91242323D02*
X76187338Y-91194704D01*
X76187338Y-91194704D02*
X76139719Y-91099466D01*
X76139719Y-91099466D02*
X76139719Y-90861371D01*
X76139719Y-90861371D02*
X76187338Y-90766133D01*
X76187338Y-90766133D02*
X76234957Y-90718514D01*
X76234957Y-90718514D02*
X76330195Y-90670895D01*
X76330195Y-90670895D02*
X76425433Y-90670895D01*
X76425433Y-90670895D02*
X76568290Y-90718514D01*
X76568290Y-90718514D02*
X77139719Y-91289942D01*
X77139719Y-91289942D02*
X77139719Y-90670895D01*
X103223219Y-88577657D02*
X102747028Y-88910990D01*
X103223219Y-89149085D02*
X102223219Y-89149085D01*
X102223219Y-89149085D02*
X102223219Y-88768133D01*
X102223219Y-88768133D02*
X102270838Y-88672895D01*
X102270838Y-88672895D02*
X102318457Y-88625276D01*
X102318457Y-88625276D02*
X102413695Y-88577657D01*
X102413695Y-88577657D02*
X102556552Y-88577657D01*
X102556552Y-88577657D02*
X102651790Y-88625276D01*
X102651790Y-88625276D02*
X102699409Y-88672895D01*
X102699409Y-88672895D02*
X102747028Y-88768133D01*
X102747028Y-88768133D02*
X102747028Y-89149085D01*
X103223219Y-87625276D02*
X103223219Y-88196704D01*
X103223219Y-87910990D02*
X102223219Y-87910990D01*
X102223219Y-87910990D02*
X102366076Y-88006228D01*
X102366076Y-88006228D02*
X102461314Y-88101466D01*
X102461314Y-88101466D02*
X102508933Y-88196704D01*
X102223219Y-87006228D02*
X102223219Y-86910990D01*
X102223219Y-86910990D02*
X102270838Y-86815752D01*
X102270838Y-86815752D02*
X102318457Y-86768133D01*
X102318457Y-86768133D02*
X102413695Y-86720514D01*
X102413695Y-86720514D02*
X102604171Y-86672895D01*
X102604171Y-86672895D02*
X102842266Y-86672895D01*
X102842266Y-86672895D02*
X103032742Y-86720514D01*
X103032742Y-86720514D02*
X103127980Y-86768133D01*
X103127980Y-86768133D02*
X103175600Y-86815752D01*
X103175600Y-86815752D02*
X103223219Y-86910990D01*
X103223219Y-86910990D02*
X103223219Y-87006228D01*
X103223219Y-87006228D02*
X103175600Y-87101466D01*
X103175600Y-87101466D02*
X103127980Y-87149085D01*
X103127980Y-87149085D02*
X103032742Y-87196704D01*
X103032742Y-87196704D02*
X102842266Y-87244323D01*
X102842266Y-87244323D02*
X102604171Y-87244323D01*
X102604171Y-87244323D02*
X102413695Y-87196704D01*
X102413695Y-87196704D02*
X102318457Y-87149085D01*
X102318457Y-87149085D02*
X102270838Y-87101466D01*
X102270838Y-87101466D02*
X102223219Y-87006228D01*
D12*
%TO.C,TP2*%
X72070000Y-103124000D02*
G75*
G02*
X70170000Y-103124000I-950000J0D01*
G01*
X70170000Y-103124000D02*
G75*
G02*
X72070000Y-103124000I950000J0D01*
G01*
%TO.C,TP1*%
X68006000Y-75946000D02*
G75*
G02*
X66106000Y-75946000I-950000J0D01*
G01*
X66106000Y-75946000D02*
G75*
G02*
X68006000Y-75946000I950000J0D01*
G01*
%TO.C,J2*%
X64626000Y-98885000D02*
X64626000Y-95140000D01*
X65119292Y-98885000D02*
X64626000Y-98885000D01*
X65468077Y-95140000D02*
X64626000Y-95140000D01*
X66946000Y-95140000D02*
X66103923Y-95140000D01*
X66946000Y-98885000D02*
X66452708Y-98885000D01*
X66946000Y-98885000D02*
X66946000Y-95140000D01*
X66946000Y-99695000D02*
X66946000Y-100505000D01*
X66946000Y-100505000D02*
X65786000Y-100505000D01*
%TO.C,C6*%
X99007200Y-96086980D02*
X99007200Y-95805820D01*
X100027200Y-96086980D02*
X100027200Y-95805820D01*
%TO.C,R19*%
X110625658Y-101608100D02*
X110151142Y-101608100D01*
X110625658Y-102653100D02*
X110151142Y-102653100D01*
%TO.C,R13*%
X110625658Y-90990900D02*
X110151142Y-90990900D01*
X110625658Y-92035900D02*
X110151142Y-92035900D01*
%TO.C,R18*%
X103617500Y-101842542D02*
X103617500Y-102317058D01*
X104662500Y-101842542D02*
X104662500Y-102317058D01*
%TO.C,Q12*%
X72570100Y-90386900D02*
X71920100Y-90386900D01*
X72570100Y-90386900D02*
X73220100Y-90386900D01*
X72570100Y-93506900D02*
X71920100Y-93506900D01*
X72570100Y-93506900D02*
X73220100Y-93506900D01*
X73972600Y-93786900D02*
X73492600Y-93786900D01*
X73732600Y-93456900D01*
X73972600Y-93786900D01*
G36*
X73972600Y-93786900D02*
G01*
X73492600Y-93786900D01*
X73732600Y-93456900D01*
X73972600Y-93786900D01*
G37*
%TO.C,R6*%
X103617500Y-80673042D02*
X103617500Y-81147558D01*
X104662500Y-80673042D02*
X104662500Y-81147558D01*
%TO.C,Q11*%
X72570100Y-93892100D02*
X71920100Y-93892100D01*
X72570100Y-93892100D02*
X73220100Y-93892100D01*
X72570100Y-97012100D02*
X71920100Y-97012100D01*
X72570100Y-97012100D02*
X73220100Y-97012100D01*
X73972600Y-97292100D02*
X73492600Y-97292100D01*
X73732600Y-96962100D01*
X73972600Y-97292100D01*
G36*
X73972600Y-97292100D02*
G01*
X73492600Y-97292100D01*
X73732600Y-96962100D01*
X73972600Y-97292100D01*
G37*
%TO.C,Q5*%
X106883200Y-86411500D02*
X106233200Y-86411500D01*
X106883200Y-86411500D02*
X107533200Y-86411500D01*
X106883200Y-89531500D02*
X106233200Y-89531500D01*
X106883200Y-89531500D02*
X107533200Y-89531500D01*
X105720700Y-86461500D02*
X105480700Y-86131500D01*
X105960700Y-86131500D01*
X105720700Y-86461500D01*
G36*
X105720700Y-86461500D02*
G01*
X105480700Y-86131500D01*
X105960700Y-86131500D01*
X105720700Y-86461500D01*
G37*
%TO.C,SW2*%
X70278800Y-71451200D02*
X70278800Y-74751200D01*
X70278800Y-74751200D02*
X70578800Y-74751200D01*
X70578800Y-71451200D02*
X70278800Y-71451200D01*
X72778800Y-71451200D02*
X73078800Y-71451200D01*
X73078800Y-71451200D02*
X73078800Y-74751200D01*
X73078800Y-74751200D02*
X72778800Y-74751200D01*
%TO.C,R21*%
X74790800Y-95689358D02*
X74790800Y-95214842D01*
X75835800Y-95689358D02*
X75835800Y-95214842D01*
%TO.C,R16*%
X103617500Y-98300642D02*
X103617500Y-98775158D01*
X104662500Y-98300642D02*
X104662500Y-98775158D01*
%TO.C,R9*%
X110625658Y-83943800D02*
X110151142Y-83943800D01*
X110625658Y-84988800D02*
X110151142Y-84988800D01*
%TO.C,R1*%
X79690700Y-73473542D02*
X79690700Y-73948058D01*
X80735700Y-73473542D02*
X80735700Y-73948058D01*
%TO.C,R4*%
X103617500Y-77153742D02*
X103617500Y-77628258D01*
X104662500Y-77153742D02*
X104662500Y-77628258D01*
%TO.C,C3*%
X74623200Y-76973820D02*
X74623200Y-77254980D01*
X75643200Y-76973820D02*
X75643200Y-77254980D01*
%TO.C,C4*%
X71168800Y-76973820D02*
X71168800Y-77254980D01*
X72188800Y-76973820D02*
X72188800Y-77254980D01*
%TO.C,R24*%
X70442858Y-80401900D02*
X69968342Y-80401900D01*
X70442858Y-81446900D02*
X69968342Y-81446900D01*
%TO.C,Q6*%
X106883200Y-89953400D02*
X106233200Y-89953400D01*
X106883200Y-89953400D02*
X107533200Y-89953400D01*
X106883200Y-93073400D02*
X106233200Y-93073400D01*
X106883200Y-93073400D02*
X107533200Y-93073400D01*
X105720700Y-90003400D02*
X105480700Y-89673400D01*
X105960700Y-89673400D01*
X105720700Y-90003400D01*
G36*
X105720700Y-90003400D02*
G01*
X105480700Y-89673400D01*
X105960700Y-89673400D01*
X105720700Y-90003400D01*
G37*
%TO.C,R8*%
X103617500Y-84178242D02*
X103617500Y-84652758D01*
X104662500Y-84178242D02*
X104662500Y-84652758D01*
%TO.C,C1*%
X78128400Y-73851380D02*
X78128400Y-73570220D01*
X79148400Y-73851380D02*
X79148400Y-73570220D01*
%TO.C,R14*%
X103617500Y-94781342D02*
X103617500Y-95255858D01*
X104662500Y-94781342D02*
X104662500Y-95255858D01*
%TO.C,Q1*%
X106883200Y-72275000D02*
X106233200Y-72275000D01*
X106883200Y-72275000D02*
X107533200Y-72275000D01*
X106883200Y-75395000D02*
X106233200Y-75395000D01*
X106883200Y-75395000D02*
X107533200Y-75395000D01*
X105720700Y-72325000D02*
X105480700Y-71995000D01*
X105960700Y-71995000D01*
X105720700Y-72325000D01*
G36*
X105720700Y-72325000D02*
G01*
X105480700Y-71995000D01*
X105960700Y-71995000D01*
X105720700Y-72325000D01*
G37*
%TO.C,R12*%
X103617500Y-91239442D02*
X103617500Y-91713958D01*
X104662500Y-91239442D02*
X104662500Y-91713958D01*
%TO.C,C5*%
X93622400Y-96188580D02*
X93622400Y-95907420D01*
X94642400Y-96188580D02*
X94642400Y-95907420D01*
%TO.C,R28*%
X91817800Y-96285258D02*
X91817800Y-95810742D01*
X92862800Y-96285258D02*
X92862800Y-95810742D01*
%TO.C,R2*%
X110676458Y-73326600D02*
X110201942Y-73326600D01*
X110676458Y-74371600D02*
X110201942Y-74371600D01*
%TO.C,R26*%
X70442858Y-83449900D02*
X69968342Y-83449900D01*
X70442858Y-84494900D02*
X69968342Y-84494900D01*
%TO.C,D1*%
X71872000Y-80688800D02*
X71872000Y-83338800D01*
X71872000Y-83338800D02*
X76922000Y-83338800D01*
X72222000Y-80338800D02*
X71872000Y-80688800D01*
X72222000Y-80338800D02*
X76922000Y-80338800D01*
X76922000Y-80338800D02*
X76922000Y-83338800D01*
%TO.C,C2*%
X79540980Y-70864000D02*
X79259820Y-70864000D01*
X79540980Y-71884000D02*
X79259820Y-71884000D01*
%TO.C,Q9*%
X106883200Y-100570600D02*
X106233200Y-100570600D01*
X106883200Y-100570600D02*
X107533200Y-100570600D01*
X106883200Y-103690600D02*
X106233200Y-103690600D01*
X106883200Y-103690600D02*
X107533200Y-103690600D01*
X105720700Y-100620600D02*
X105480700Y-100290600D01*
X105960700Y-100290600D01*
X105720700Y-100620600D01*
G36*
X105720700Y-100620600D02*
G01*
X105480700Y-100290600D01*
X105960700Y-100290600D01*
X105720700Y-100620600D01*
G37*
%TO.C,R11*%
X110625658Y-87463100D02*
X110151142Y-87463100D01*
X110625658Y-88508100D02*
X110151142Y-88508100D01*
%TO.C,R23*%
X74790800Y-88678958D02*
X74790800Y-88204442D01*
X75835800Y-88678958D02*
X75835800Y-88204442D01*
%TO.C,U2*%
X95214000Y-95997200D02*
X95214000Y-95197200D01*
X95214000Y-95997200D02*
X95214000Y-96797200D01*
X98334000Y-95997200D02*
X98334000Y-95197200D01*
X98334000Y-95997200D02*
X98334000Y-96797200D01*
X98614000Y-94937200D02*
X98284000Y-94697200D01*
X98614000Y-94457200D01*
X98614000Y-94937200D01*
G36*
X98614000Y-94937200D02*
G01*
X98284000Y-94697200D01*
X98614000Y-94457200D01*
X98614000Y-94937200D01*
G37*
%TO.C,J4*%
X88892000Y-103690200D02*
X88892000Y-102280200D01*
X89712000Y-99610200D02*
X89712000Y-99760200D01*
X90512000Y-99610200D02*
X89712000Y-99610200D01*
X98052000Y-103690200D02*
X98052000Y-102280200D01*
%TO.C,Q7*%
X106883200Y-93509400D02*
X106233200Y-93509400D01*
X106883200Y-93509400D02*
X107533200Y-93509400D01*
X106883200Y-96629400D02*
X106233200Y-96629400D01*
X106883200Y-96629400D02*
X107533200Y-96629400D01*
X105720700Y-93559400D02*
X105480700Y-93229400D01*
X105960700Y-93229400D01*
X105720700Y-93559400D01*
G36*
X105720700Y-93559400D02*
G01*
X105480700Y-93229400D01*
X105960700Y-93229400D01*
X105720700Y-93559400D01*
G37*
%TO.C,C7*%
X100618700Y-96086980D02*
X100618700Y-95805820D01*
X101638700Y-96086980D02*
X101638700Y-95805820D01*
%TO.C,R15*%
X110625658Y-94546900D02*
X110151142Y-94546900D01*
X110625658Y-95591900D02*
X110151142Y-95591900D01*
%TO.C,Q13*%
X72570100Y-86881700D02*
X71920100Y-86881700D01*
X72570100Y-86881700D02*
X73220100Y-86881700D01*
X72570100Y-90001700D02*
X71920100Y-90001700D01*
X72570100Y-90001700D02*
X73220100Y-90001700D01*
X73972600Y-90281700D02*
X73492600Y-90281700D01*
X73732600Y-89951700D01*
X73972600Y-90281700D01*
G36*
X73972600Y-90281700D02*
G01*
X73492600Y-90281700D01*
X73732600Y-89951700D01*
X73972600Y-90281700D01*
G37*
%TO.C,R25*%
X70442858Y-81925900D02*
X69968342Y-81925900D01*
X70442858Y-82970900D02*
X69968342Y-82970900D01*
%TO.C,U3*%
X88240300Y-96048000D02*
X88240300Y-95248000D01*
X88240300Y-96048000D02*
X88240300Y-96848000D01*
X91360300Y-96048000D02*
X91360300Y-95248000D01*
X91360300Y-96048000D02*
X91360300Y-96848000D01*
X88290300Y-97348000D02*
X87960300Y-97588000D01*
X87960300Y-97108000D01*
X88290300Y-97348000D01*
G36*
X88290300Y-97348000D02*
G01*
X87960300Y-97588000D01*
X87960300Y-97108000D01*
X88290300Y-97348000D01*
G37*
%TO.C,Q2*%
X106883200Y-75831000D02*
X106233200Y-75831000D01*
X106883200Y-75831000D02*
X107533200Y-75831000D01*
X106883200Y-78951000D02*
X106233200Y-78951000D01*
X106883200Y-78951000D02*
X107533200Y-78951000D01*
X105720700Y-75881000D02*
X105480700Y-75551000D01*
X105960700Y-75551000D01*
X105720700Y-75881000D01*
G36*
X105720700Y-75881000D02*
G01*
X105480700Y-75551000D01*
X105960700Y-75551000D01*
X105720700Y-75881000D01*
G37*
%TO.C,J1*%
X114968800Y-78271500D02*
X116128800Y-78271500D01*
X114968800Y-79081500D02*
X114968800Y-78271500D01*
X114968800Y-79891500D02*
X114968800Y-93796500D01*
X114968800Y-79891500D02*
X115462092Y-79891500D01*
X114968800Y-93796500D02*
X115810877Y-93796500D01*
X116446723Y-93796500D02*
X117288800Y-93796500D01*
X116795508Y-79891500D02*
X117288800Y-79891500D01*
X117288800Y-79891500D02*
X117288800Y-93796500D01*
%TO.C,Q4*%
X106883200Y-82906300D02*
X106233200Y-82906300D01*
X106883200Y-82906300D02*
X107533200Y-82906300D01*
X106883200Y-86026300D02*
X106233200Y-86026300D01*
X106883200Y-86026300D02*
X107533200Y-86026300D01*
X105720700Y-82956300D02*
X105480700Y-82626300D01*
X105960700Y-82626300D01*
X105720700Y-82956300D01*
G36*
X105720700Y-82956300D02*
G01*
X105480700Y-82626300D01*
X105960700Y-82626300D01*
X105720700Y-82956300D01*
G37*
%TO.C,R3*%
X103617500Y-73611842D02*
X103617500Y-74086358D01*
X104662500Y-73611842D02*
X104662500Y-74086358D01*
%TO.C,Q3*%
X106883200Y-79387000D02*
X106233200Y-79387000D01*
X106883200Y-79387000D02*
X107533200Y-79387000D01*
X106883200Y-82507000D02*
X106233200Y-82507000D01*
X106883200Y-82507000D02*
X107533200Y-82507000D01*
X105720700Y-79437000D02*
X105480700Y-79107000D01*
X105960700Y-79107000D01*
X105720700Y-79437000D01*
G36*
X105720700Y-79437000D02*
G01*
X105480700Y-79107000D01*
X105960700Y-79107000D01*
X105720700Y-79437000D01*
G37*
%TO.C,R27*%
X86737800Y-96285258D02*
X86737800Y-95810742D01*
X87782800Y-96285258D02*
X87782800Y-95810742D01*
%TO.C,Q10*%
X72570100Y-97434000D02*
X71920100Y-97434000D01*
X72570100Y-97434000D02*
X73220100Y-97434000D01*
X72570100Y-100554000D02*
X71920100Y-100554000D01*
X72570100Y-100554000D02*
X73220100Y-100554000D01*
X73972600Y-100834000D02*
X73492600Y-100834000D01*
X73732600Y-100504000D01*
X73972600Y-100834000D01*
G36*
X73972600Y-100834000D02*
G01*
X73492600Y-100834000D01*
X73732600Y-100504000D01*
X73972600Y-100834000D01*
G37*
%TO.C,R5*%
X110625658Y-76817700D02*
X110151142Y-76817700D01*
X110625658Y-77862700D02*
X110151142Y-77862700D01*
%TO.C,U1*%
X82187600Y-61678300D02*
X82187600Y-67878300D01*
X82187600Y-61678300D02*
X100587600Y-61678300D01*
X82187600Y-86528300D02*
X82187600Y-87528300D01*
X82187600Y-87528300D02*
X83687600Y-87528300D01*
X100587600Y-61678300D02*
X100587600Y-67878300D01*
X100587600Y-87528300D02*
X99087600Y-87528300D01*
X100587600Y-87528300D02*
X100587600Y-86528300D01*
X82187600Y-68553300D02*
X81687600Y-68553300D01*
X82187600Y-68053300D01*
X82187600Y-68553300D01*
G36*
X82187600Y-68553300D02*
G01*
X81687600Y-68553300D01*
X82187600Y-68053300D01*
X82187600Y-68553300D01*
G37*
%TO.C,Q8*%
X106883200Y-97028700D02*
X106233200Y-97028700D01*
X106883200Y-97028700D02*
X107533200Y-97028700D01*
X106883200Y-100148700D02*
X106233200Y-100148700D01*
X106883200Y-100148700D02*
X107533200Y-100148700D01*
X105720700Y-97078700D02*
X105480700Y-96748700D01*
X105960700Y-96748700D01*
X105720700Y-97078700D01*
G36*
X105720700Y-97078700D02*
G01*
X105480700Y-96748700D01*
X105960700Y-96748700D01*
X105720700Y-97078700D01*
G37*
%TO.C,R20*%
X74803800Y-99236758D02*
X74803800Y-98762242D01*
X75848800Y-99236758D02*
X75848800Y-98762242D01*
%TO.C,R7*%
X110625658Y-80387800D02*
X110151142Y-80387800D01*
X110625658Y-81432800D02*
X110151142Y-81432800D01*
%TO.C,J3*%
X64626000Y-90757000D02*
X64626000Y-87012000D01*
X65119292Y-90757000D02*
X64626000Y-90757000D01*
X65468077Y-87012000D02*
X64626000Y-87012000D01*
X66946000Y-87012000D02*
X66103923Y-87012000D01*
X66946000Y-90757000D02*
X66452708Y-90757000D01*
X66946000Y-90757000D02*
X66946000Y-87012000D01*
X66946000Y-91567000D02*
X66946000Y-92377000D01*
X66946000Y-92377000D02*
X65786000Y-92377000D01*
%TO.C,SW1*%
X73733200Y-71451200D02*
X73733200Y-74751200D01*
X73733200Y-74751200D02*
X74033200Y-74751200D01*
X74033200Y-71451200D02*
X73733200Y-71451200D01*
X76233200Y-71451200D02*
X76533200Y-71451200D01*
X76533200Y-71451200D02*
X76533200Y-74751200D01*
X76533200Y-74751200D02*
X76233200Y-74751200D01*
%TO.C,R17*%
X110625658Y-98066200D02*
X110151142Y-98066200D01*
X110625658Y-99111200D02*
X110151142Y-99111200D01*
%TO.C,R22*%
X74790800Y-92170058D02*
X74790800Y-91695542D01*
X75835800Y-92170058D02*
X75835800Y-91695542D01*
%TO.C,R10*%
X103617500Y-87697542D02*
X103617500Y-88172058D01*
X104662500Y-87697542D02*
X104662500Y-88172058D01*
%TD*%
%LPC*%
D13*
%TO.C,TP2*%
X71120000Y-103124000D03*
%TD*%
%TO.C,TP1*%
X67056000Y-75946000D03*
%TD*%
D14*
%TO.C,J2*%
X65786000Y-99695000D03*
D15*
X65786000Y-98425000D03*
X65786000Y-97155000D03*
X65786000Y-95885000D03*
%TD*%
D16*
%TO.C,C6*%
X99517200Y-96721400D03*
X99517200Y-95171400D03*
%TD*%
D17*
%TO.C,R19*%
X111213400Y-102130600D03*
X109563400Y-102130600D03*
%TD*%
%TO.C,R13*%
X111213400Y-91513400D03*
X109563400Y-91513400D03*
%TD*%
D18*
%TO.C,R18*%
X104140000Y-101254800D03*
X104140000Y-102904800D03*
%TD*%
D19*
%TO.C,Q12*%
X73507600Y-92896900D03*
X73507600Y-90996900D03*
X71632600Y-91946900D03*
%TD*%
D18*
%TO.C,R6*%
X104140000Y-80085300D03*
X104140000Y-81735300D03*
%TD*%
D19*
%TO.C,Q11*%
X73507600Y-96402100D03*
X73507600Y-94502100D03*
X71632600Y-95452100D03*
%TD*%
D20*
%TO.C,Q5*%
X105945700Y-87021500D03*
X105945700Y-88921500D03*
X107820700Y-87971500D03*
%TD*%
D21*
%TO.C,SW2*%
X71678800Y-71401200D03*
X71678800Y-74801200D03*
%TD*%
D22*
%TO.C,R21*%
X75313300Y-96277100D03*
X75313300Y-94627100D03*
%TD*%
D18*
%TO.C,R16*%
X104140000Y-97712900D03*
X104140000Y-99362900D03*
%TD*%
D17*
%TO.C,R9*%
X111213400Y-84466300D03*
X109563400Y-84466300D03*
%TD*%
D18*
%TO.C,R1*%
X80213200Y-72885800D03*
X80213200Y-74535800D03*
%TD*%
%TO.C,R4*%
X104140000Y-76566000D03*
X104140000Y-78216000D03*
%TD*%
D23*
%TO.C,C3*%
X75133200Y-76339400D03*
X75133200Y-77889400D03*
%TD*%
%TO.C,C4*%
X71678800Y-76339400D03*
X71678800Y-77889400D03*
%TD*%
D17*
%TO.C,R24*%
X71030600Y-80924400D03*
X69380600Y-80924400D03*
%TD*%
D20*
%TO.C,Q6*%
X105945700Y-90563400D03*
X105945700Y-92463400D03*
X107820700Y-91513400D03*
%TD*%
D18*
%TO.C,R8*%
X104140000Y-83590500D03*
X104140000Y-85240500D03*
%TD*%
D16*
%TO.C,C1*%
X78638400Y-74485800D03*
X78638400Y-72935800D03*
%TD*%
D18*
%TO.C,R14*%
X104140000Y-94193600D03*
X104140000Y-95843600D03*
%TD*%
D20*
%TO.C,Q1*%
X105945700Y-72885000D03*
X105945700Y-74785000D03*
X107820700Y-73835000D03*
%TD*%
D18*
%TO.C,R12*%
X104140000Y-90651700D03*
X104140000Y-92301700D03*
%TD*%
D16*
%TO.C,C5*%
X94132400Y-96823000D03*
X94132400Y-95273000D03*
%TD*%
D22*
%TO.C,R28*%
X92340300Y-96873000D03*
X92340300Y-95223000D03*
%TD*%
D17*
%TO.C,R2*%
X111264200Y-73849100D03*
X109614200Y-73849100D03*
%TD*%
%TO.C,R26*%
X71030600Y-83972400D03*
X69380600Y-83972400D03*
%TD*%
D24*
%TO.C,D1*%
X72947000Y-80938800D03*
X72947000Y-81838800D03*
X72947000Y-82738800D03*
X75897000Y-82738800D03*
X75897000Y-81838800D03*
X75897000Y-80938800D03*
%TD*%
D25*
%TO.C,C2*%
X80175400Y-71374000D03*
X78625400Y-71374000D03*
%TD*%
D20*
%TO.C,Q9*%
X105945700Y-101180600D03*
X105945700Y-103080600D03*
X107820700Y-102130600D03*
%TD*%
D17*
%TO.C,R11*%
X111213400Y-87985600D03*
X109563400Y-87985600D03*
%TD*%
D22*
%TO.C,R23*%
X75313300Y-89266700D03*
X75313300Y-87616700D03*
%TD*%
D26*
%TO.C,U2*%
X97724000Y-94859700D03*
X96774000Y-94859700D03*
X95824000Y-94859700D03*
X95824000Y-97134700D03*
X97724000Y-97134700D03*
%TD*%
D27*
%TO.C,J4*%
X90582000Y-101520200D03*
X96362000Y-101520200D03*
D28*
X90272000Y-100445200D03*
X91072000Y-100445200D03*
D29*
X92222000Y-100445200D03*
X93222000Y-100445200D03*
X93722000Y-100445200D03*
X94722000Y-100445200D03*
D28*
X95872000Y-100445200D03*
X96672000Y-100445200D03*
X96672000Y-100445200D03*
X95872000Y-100445200D03*
D29*
X95222000Y-100445200D03*
X94222000Y-100445200D03*
X92722000Y-100445200D03*
X91722000Y-100445200D03*
D28*
X91072000Y-100445200D03*
X90272000Y-100445200D03*
D30*
X88362000Y-101020200D03*
X88362000Y-104950200D03*
X98582000Y-101020200D03*
X98582000Y-104950200D03*
%TD*%
D20*
%TO.C,Q7*%
X105945700Y-94119400D03*
X105945700Y-96019400D03*
X107820700Y-95069400D03*
%TD*%
D16*
%TO.C,C7*%
X101128700Y-96721400D03*
X101128700Y-95171400D03*
%TD*%
D17*
%TO.C,R15*%
X111213400Y-95069400D03*
X109563400Y-95069400D03*
%TD*%
D19*
%TO.C,Q13*%
X73507600Y-89391700D03*
X73507600Y-87491700D03*
X71632600Y-88441700D03*
%TD*%
D17*
%TO.C,R25*%
X71030600Y-82448400D03*
X69380600Y-82448400D03*
%TD*%
D31*
%TO.C,U3*%
X88850300Y-97185500D03*
X89800300Y-97185500D03*
X90750300Y-97185500D03*
X90750300Y-94910500D03*
X89800300Y-94910500D03*
X88850300Y-94910500D03*
%TD*%
D20*
%TO.C,Q2*%
X105945700Y-76441000D03*
X105945700Y-78341000D03*
X107820700Y-77391000D03*
%TD*%
D14*
%TO.C,J1*%
X116128800Y-79081500D03*
D15*
X116128800Y-80351500D03*
X116128800Y-81621500D03*
X116128800Y-82891500D03*
X116128800Y-84161500D03*
X116128800Y-85431500D03*
X116128800Y-86701500D03*
X116128800Y-87971500D03*
X116128800Y-89241500D03*
X116128800Y-90511500D03*
X116128800Y-91781500D03*
X116128800Y-93051500D03*
%TD*%
D20*
%TO.C,Q4*%
X105945700Y-83516300D03*
X105945700Y-85416300D03*
X107820700Y-84466300D03*
%TD*%
D18*
%TO.C,R3*%
X104140000Y-73024100D03*
X104140000Y-74674100D03*
%TD*%
D20*
%TO.C,Q3*%
X105945700Y-79997000D03*
X105945700Y-81897000D03*
X107820700Y-80947000D03*
%TD*%
D22*
%TO.C,R27*%
X87260300Y-96873000D03*
X87260300Y-95223000D03*
%TD*%
D19*
%TO.C,Q10*%
X73507600Y-99944000D03*
X73507600Y-98044000D03*
X71632600Y-98994000D03*
%TD*%
D17*
%TO.C,R5*%
X111213400Y-77340200D03*
X109563400Y-77340200D03*
%TD*%
D32*
%TO.C,U1*%
X82637600Y-69318300D03*
X82637600Y-70588300D03*
X82637600Y-71858300D03*
X82637600Y-73128300D03*
X82637600Y-74398300D03*
X82637600Y-75668300D03*
X82637600Y-76938300D03*
X82637600Y-78208300D03*
X82637600Y-79478300D03*
X82637600Y-80748300D03*
X82637600Y-82018300D03*
X82637600Y-83288300D03*
X82637600Y-84558300D03*
X82637600Y-85828300D03*
D33*
X84402600Y-87078300D03*
X85672600Y-87078300D03*
X86942600Y-87078300D03*
X88212600Y-87078300D03*
X89482600Y-87078300D03*
X90752600Y-87078300D03*
X92022600Y-87078300D03*
X93292600Y-87078300D03*
X94562600Y-87078300D03*
X95832600Y-87078300D03*
X97102600Y-87078300D03*
X98372600Y-87078300D03*
D32*
X100137600Y-85828300D03*
X100137600Y-84558300D03*
X100137600Y-83288300D03*
X100137600Y-82018300D03*
X100137600Y-80748300D03*
X100137600Y-79478300D03*
X100137600Y-78208300D03*
X100137600Y-76938300D03*
X100137600Y-75668300D03*
X100137600Y-74398300D03*
X100137600Y-73128300D03*
X100137600Y-71858300D03*
X100137600Y-70588300D03*
X100137600Y-69318300D03*
D34*
X88487600Y-76338300D03*
X88487600Y-77738300D03*
X89187600Y-75638300D03*
X89187600Y-77038300D03*
X89187600Y-78438300D03*
X89887600Y-76338300D03*
D35*
X89887600Y-77038300D03*
D34*
X89887600Y-77738300D03*
X90587600Y-75638300D03*
X90587600Y-77038300D03*
X90587600Y-78438300D03*
X91287600Y-76338300D03*
X91287600Y-77738300D03*
%TD*%
D20*
%TO.C,Q8*%
X105945700Y-97638700D03*
X105945700Y-99538700D03*
X107820700Y-98588700D03*
%TD*%
D22*
%TO.C,R20*%
X75326300Y-99824500D03*
X75326300Y-98174500D03*
%TD*%
D17*
%TO.C,R7*%
X111213400Y-80910300D03*
X109563400Y-80910300D03*
%TD*%
D14*
%TO.C,J3*%
X65786000Y-91567000D03*
D15*
X65786000Y-90297000D03*
X65786000Y-89027000D03*
X65786000Y-87757000D03*
%TD*%
D21*
%TO.C,SW1*%
X75133200Y-71401200D03*
X75133200Y-74801200D03*
%TD*%
D17*
%TO.C,R17*%
X111213400Y-98588700D03*
X109563400Y-98588700D03*
%TD*%
D22*
%TO.C,R22*%
X75313300Y-92757800D03*
X75313300Y-91107800D03*
%TD*%
D18*
%TO.C,R10*%
X104140000Y-87109800D03*
X104140000Y-88759800D03*
%TD*%
%LPD*%
M02*
