M48
; DRILL file {KiCad 9.0.3} date 2026-06-10T21:55:07+0200
; FORMAT={-:-/ absolute / inch / decimal}
; #@! TF.CreationDate,2026-06-10T21:55:07+02:00
; #@! TF.GenerationSoftware,Kicad,Pcbnew,9.0.3
; #@! TF.FileFunction,Plated,1,2,PTH
FMAT,2
INCH
; #@! TA.AperFunction,Plated,PTH,ComponentDrill
T1C0.0079
; #@! TA.AperFunction,Plated,PTH,ViaDrill
T2C0.0118
; #@! TA.AperFunction,Plated,PTH,ComponentDrill
T3C0.0256
%
G90
G05
T1
X3.4838Y-3.0054
X3.4838Y-3.0606
X3.5113Y-2.9779
X3.5113Y-3.033
X3.5113Y-3.0881
X3.5389Y-3.0054
X3.5389Y-3.0606
X3.5664Y-2.9779
X3.5664Y-3.033
X3.5664Y-3.0881
X3.594Y-3.0054
X3.594Y-3.0606
T2
X2.65Y-3.25
X2.67Y-3.8
X2.73Y-2.82
X2.73Y-3.13
X2.73Y-3.35
X2.74Y-3.88
X2.76Y-3.07
X2.81Y-3.71
X2.81Y-3.85
X2.82Y-3.57
X2.83Y-3.44
X2.89Y-3.04
X2.96Y-3.12
X2.96Y-4.09
X2.99Y-3.41
X3.02Y-3.57
X3.02Y-3.71
X3.02Y-3.84
X3.03Y-2.75
X3.05Y-2.85
X3.05Y-3.18
X3.05Y-3.22
X3.05Y-3.26
X3.07Y-2.76
X3.08Y-3.41
X3.08Y-3.57
X3.12Y-3.63
X3.15Y-3.32
X3.17Y-2.71
X3.18Y-3.25
X3.18Y-3.68
X3.18Y-3.88
X3.21Y-3.72
X3.22Y-4.09
X3.27Y-3.52
X3.32Y-2.86
X3.33Y-3.28
X3.3436Y-2.8377
X3.35Y-3.34
X3.3672Y-2.8631
X3.38Y-3.54
X3.38Y-3.75
X3.3909Y-2.89
X3.41Y-3.89
X3.43Y-3.26
X3.44Y-3.33
X3.46Y-3.54
X3.49Y-3.34
X3.54Y-3.37
X3.54Y-3.69
X3.5503Y-3.7809
X3.585Y-3.535
X3.61Y-3.34
X3.66Y-3.51
X3.66Y-3.72
X3.67Y-3.03
X3.67Y-4.15
X3.71Y-3.58
X3.73Y-3.72
X3.74Y-3.666
X3.75Y-3.37
X3.76Y-3.5
X3.8Y-3.16
X3.8211Y-3.7794
X3.83Y-3.13
X3.83Y-3.19
X3.84Y-3.54
X3.84Y-3.9
X3.87Y-3.68
X3.95Y-3.78
X4.0Y-3.59
X4.03Y-3.94
X4.04Y-3.41
X4.04Y-3.54
X4.05Y-2.97
X4.05Y-3.13
X4.05Y-3.27
X4.05Y-3.81
X4.08Y-2.82
X4.0871Y-4.1473
X4.12Y-2.97
X4.12Y-3.25
X4.12Y-3.39
X4.12Y-3.52
X4.12Y-3.67
X4.12Y-3.81
X4.12Y-3.95
X4.13Y-4.09
X4.17Y-2.77
X4.22Y-2.96
X4.31Y-2.77
X4.37Y-4.15
X4.38Y-2.95
X4.4164Y-3.57
X4.42Y-3.02
X4.42Y-3.16
X4.42Y-3.29
X4.42Y-3.42
X4.42Y-3.7
X4.42Y-3.83
X4.42Y-3.98
X4.45Y-3.64
X4.46Y-3.78
X4.47Y-3.04
X4.47Y-3.22
X4.47Y-3.37
X4.47Y-3.46
X4.57Y-3.92
T3
X2.59Y-3.455
X2.59Y-3.505
X2.59Y-3.555
X2.59Y-3.605
X2.59Y-3.775
X2.59Y-3.825
X2.59Y-3.875
X2.59Y-3.925
X4.572Y-3.1134
X4.572Y-3.1634
X4.572Y-3.2134
X4.572Y-3.2634
X4.572Y-3.3134
X4.572Y-3.3634
X4.572Y-3.4134
X4.572Y-3.4634
X4.572Y-3.5134
X4.572Y-3.5634
X4.572Y-3.6134
X4.572Y-3.6634
M30
